<svg id="Capa_1" data-name="Capa 1" xmlns="http://www.w3.org/2000/svg" viewBox="0 0 533 305.44"><defs><style>.cls-1{fill:#ffcd00;}.cls-2{fill:#2b2b96;}.cls-3{fill:#fff;stroke:#2b2b96;stroke-miterlimit:10;stroke-width:6px;}</style></defs><title>logo</title><path class="cls-1" d="M187,119c-63.82,67-98.78,164.85-64,198s141-13,198-89c45.89-61.19,107.23-154.15,64-193C342.44-3.24,250.82,52,187,119Z" transform="translate(-22.5 -22.46)"/><path class="cls-2" d="M197.5,91.5s-93-22-128,37c0,0-13,25,12,53,0,0,11.94,12.1,16,17,5.26,6.36,18,26-18,28-11.7.65-29-3-46-10l-11,44s60,14,102-7c0,0,49-22,34-67-3-8.93-9.07-15.77-23-29-10.46-9.93-30-46,51-28Z" transform="translate(-22.5 -22.46)"/><polygon class="cls-2" points="357 66.54 283 239.04 332 239.04 382 116.98 393 239.04 461 239.04 533 66.54 485 66.54 436 189.61 424 66.54 357 66.54"/><polygon class="cls-3" points="335.03 68.54 206.93 68.54 135 236.54 191.17 236.54 217.77 172.68 280.84 172.68 298.57 130.44 236.49 130.44 246.35 107.84 318.28 107.84 335.03 68.54"/></svg>