<?xml version="1.0" encoding="UTF-8" standalone="no"?>
<svg
   xmlns:dc="http://purl.org/dc/elements/1.1/"
   xmlns:cc="http://creativecommons.org/ns#"
   xmlns:rdf="http://www.w3.org/1999/02/22-rdf-syntax-ns#"
   xmlns:svg="http://www.w3.org/2000/svg"
   xmlns="http://www.w3.org/2000/svg"
   xmlns:sodipodi="http://sodipodi.sourceforge.net/DTD/sodipodi-0.dtd"
   xmlns:inkscape="http://www.inkscape.org/namespaces/inkscape"
   sodipodi:docname="add.svg"
   inkscape:version="1.0 (4035a4fb49, 2020-05-01)"
   id="svg8"
   version="1.1"
   viewBox="0 0 4.2333331 4.2333334"
   height="16"
   width="16">
  <defs
     id="defs2" />
  <sodipodi:namedview
     inkscape:window-maximized="1"
     inkscape:window-y="-9"
     inkscape:window-x="-9"
     inkscape:window-height="1001"
     inkscape:window-width="1920"
     units="px"
     showgrid="false"
     inkscape:document-rotation="0"
     inkscape:current-layer="layer1"
     inkscape:document-units="mm"
     inkscape:cy="11.911842"
     inkscape:cx="18.835318"
     inkscape:zoom="15.839192"
     inkscape:pageshadow="2"
     inkscape:pageopacity="0.0"
     borderopacity="1.0"
     bordercolor="#666666"
     pagecolor="#ffffff"
     id="base" />
  <metadata
     id="metadata5">
    <rdf:RDF>
      <cc:Work
         rdf:about="">
        <dc:format>image/svg+xml</dc:format>
        <dc:type
           rdf:resource="http://purl.org/dc/dcmitype/StillImage" />
        <dc:title></dc:title>
      </cc:Work>
    </rdf:RDF>
  </metadata>
  <g
     id="layer1"
     inkscape:groupmode="layer"
     inkscape:label="Capa 1">
    <path
       id="path847"
       d="M 2.0570292,4.0284247 C 1.8976405,3.9946971 1.7829682,3.8845351 1.7356081,3.7196442 1.7280349,3.6932774 1.726711,3.6145595 1.7250319,3.0908145 L 1.7231125,2.4921243 1.1457948,2.491959 C 0.82707448,2.4918763 0.55119073,2.4895375 0.52988516,2.4867617 0.28662743,2.4549625 0.12596899,2.2225913 0.17982909,1.980437 0.21393139,1.8271141 0.31891159,1.7175258 0.47796589,1.6692141 l 0.0408933,-0.012421 0.58439431,-0.00162 c 0.3214169,-8.977e-4 0.5923551,-0.00159 0.6020846,-0.00155 l 0.01769,8.33e-5 0.00169,-0.6014299 c 0.0012,-0.42635258 0.00347,-0.60621583 0.00786,-0.61786995 0.00339,-0.009042 0.00933,-0.0275369 0.013186,-0.0411 0.01555,-0.0546461 0.067444,-0.13405948 0.1159032,-0.17736706 0.1778575,-0.15894717 0.460736,-0.1376364 0.6097626,0.045937 0.031012,0.0382049 0.046138,0.0635575 0.063691,0.1067704 0.029347,0.0722546 0.028018,0.0431122 0.03145,0.68774001 l 0.00319,0.6000598 0.5999109,0.00113 c 0.5897229,0.00111 0.6006313,0.00133 0.6422825,0.012601 0.2115107,0.057235 0.3407144,0.261197 0.3019909,0.476725 -0.014104,0.078494 -0.03973,0.1343035 -0.088857,0.1935027 -0.044532,0.053668 -0.1006887,0.094505 -0.1648472,0.1198869 -0.075629,0.02992 -0.036144,0.028113 -0.6880695,0.031473 l -0.60497,0.00313 -0.00189,0.5973199 c -0.00201,0.6431171 -6.531e-4,0.6118281 -0.030272,0.6853374 -0.0755,0.1872335 -0.2776085,0.2933162 -0.4780276,0.2509063 z"
       style="fill:#ffffff;stroke-width:0.00549654" />
  </g>
</svg>
