<?xml version="1.0" encoding="UTF-8" standalone="no"?>
<svg
   xmlns:dc="http://purl.org/dc/elements/1.1/"
   xmlns:cc="http://creativecommons.org/ns#"
   xmlns:rdf="http://www.w3.org/1999/02/22-rdf-syntax-ns#"
   xmlns:svg="http://www.w3.org/2000/svg"
   xmlns="http://www.w3.org/2000/svg"
   xmlns:sodipodi="http://sodipodi.sourceforge.net/DTD/sodipodi-0.dtd"
   xmlns:inkscape="http://www.inkscape.org/namespaces/inkscape"
   width="16"
   height="16"
   viewBox="0 0 4.2333331 4.2333334"
   version="1.1"
   id="svg8"
   inkscape:version="1.0 (4035a4fb49, 2020-05-01)"
   sodipodi:docname="add.svg">
  <defs
     id="defs2" />
  <sodipodi:namedview
     id="base"
     pagecolor="#ffffff"
     bordercolor="#666666"
     borderopacity="1.0"
     inkscape:pageopacity="0.0"
     inkscape:pageshadow="2"
     inkscape:zoom="44.8"
     inkscape:cx="12.124246"
     inkscape:cy="7.7878545"
     inkscape:document-units="mm"
     inkscape:current-layer="layer1"
     inkscape:document-rotation="0"
     showgrid="false"
     units="px"
     inkscape:window-width="1920"
     inkscape:window-height="1001"
     inkscape:window-x="-9"
     inkscape:window-y="-9"
     inkscape:window-maximized="1" />
  <metadata
     id="metadata5">
    <rdf:RDF>
      <cc:Work
         rdf:about="">
        <dc:format>image/svg+xml</dc:format>
        <dc:type
           rdf:resource="http://purl.org/dc/dcmitype/StillImage" />
        <dc:title />
      </cc:Work>
    </rdf:RDF>
  </metadata>
  <g
     inkscape:label="Capa 1"
     inkscape:groupmode="layer"
     id="layer1">
    <path
       style="fill:#ffffff;stroke-width:0.00549654"
       d="M 2.0211741,4.0697659 C 1.8617854,4.0360383 1.7471131,3.9258763 1.699753,3.7609854 1.6921798,3.7346186 1.6908559,3.6559007 1.6891768,3.1321557 L 1.6872574,2.5334655 1.1099397,2.5333002 C 0.79121944,2.5332175 0.51533576,2.5308787 0.49403016,2.5281029 0.25077246,2.4963037 0.09011402,2.2639325 0.14397412,2.0217782 0.17807646,1.8684553 0.28305666,1.758867 0.44211096,1.7105553 l 0.040893,-0.012421 0.58439424,-0.00162 c 0.3214169,-8.977e-4 0.5923551,-0.00159 0.6020846,-0.00155 l 0.01769,8.33e-5 0.00169,-0.6014299 c 0.0012,-0.42635266 0.00347,-0.60621589 0.00786,-0.61787001 0.00339,-0.009042 0.00933,-0.0275369 0.013186,-0.0411 0.01555,-0.0546461 0.067444,-0.13405948 0.1159032,-0.17736706 0.1778575,-0.15894717 0.460736,-0.1376364 0.6097626,0.045937 0.031012,0.0382049 0.046138,0.0635575 0.063691,0.1067704 0.029347,0.0722546 0.028018,0.0431122 0.03145,0.68774007 l 0.00319,0.6000598 0.5999109,0.00113 c 0.5897229,0.00111 0.6006313,0.00133 0.6422825,0.012601 0.2115107,0.057235 0.3407144,0.261197 0.3019909,0.476725 -0.014104,0.078494 -0.03973,0.1343035 -0.088857,0.1935027 -0.044532,0.053668 -0.1006887,0.094505 -0.1648472,0.1198869 -0.075629,0.02992 -0.036144,0.028113 -0.6880695,0.031473 l -0.60497,0.00313 -0.00189,0.5973199 C 2.5274462,3.7766735 2.5288031,3.7453845 2.4991842,3.8188938 2.4236842,4.0061273 2.2215757,4.11221 2.0211566,4.0698001 Z"
       id="path847" />
  </g>
</svg>
