<?xml version="1.0" encoding="UTF-8" standalone="no"?>
<svg
   xmlns:dc="http://purl.org/dc/elements/1.1/"
   xmlns:cc="http://creativecommons.org/ns#"
   xmlns:rdf="http://www.w3.org/1999/02/22-rdf-syntax-ns#"
   xmlns:svg="http://www.w3.org/2000/svg"
   xmlns="http://www.w3.org/2000/svg"
   xmlns:sodipodi="http://sodipodi.sourceforge.net/DTD/sodipodi-0.dtd"
   xmlns:inkscape="http://www.inkscape.org/namespaces/inkscape"
   width="512"
   height="512"
   viewBox="0 0 135.46666 135.46667"
   version="1.1"
   id="svg8"
   inkscape:version="1.0 (4035a4fb49, 2020-05-01)"
   sodipodi:docname="add.svg">
  <defs
     id="defs2" />
  <sodipodi:namedview
     id="base"
     pagecolor="#ffffff"
     bordercolor="#666666"
     borderopacity="1.0"
     inkscape:pageopacity="0.0"
     inkscape:pageshadow="2"
     inkscape:zoom="0.70000001"
     inkscape:cx="-124.99083"
     inkscape:cy="90.969279"
     inkscape:document-units="mm"
     inkscape:current-layer="layer1"
     inkscape:document-rotation="0"
     showgrid="false"
     units="px"
     inkscape:window-width="1920"
     inkscape:window-height="1001"
     inkscape:window-x="-9"
     inkscape:window-y="-9"
     inkscape:window-maximized="1" />
  <metadata
     id="metadata5">
    <rdf:RDF>
      <cc:Work
         rdf:about="">
        <dc:format>image/svg+xml</dc:format>
        <dc:type
           rdf:resource="http://purl.org/dc/dcmitype/StillImage" />
        <dc:title></dc:title>
      </cc:Work>
    </rdf:RDF>
  </metadata>
  <g
     inkscape:label="Capa 1"
     inkscape:groupmode="layer"
     id="layer1">
    <path
       style="fill:#ffffff;stroke-width:0.148907"
       d="m 64.914163,120.26955 c -4.318008,-0.91372 -7.424602,-3.89812 -8.707637,-8.36519 -0.205166,-0.7143 -0.241032,-2.84686 -0.28652,-17.035663 l -0.052,-16.21915 -15.640146,-0.0045 c -8.63447,-0.0022 -16.108451,-0.06558 -16.685642,-0.140778 -6.590109,-0.861475 -10.942516,-7.156656 -9.483389,-13.716871 0.923867,-4.15368 3.767892,-7.122542 8.076841,-8.431357 l 1.107843,-0.336498 15.831859,-0.04389 c 8.707523,-0.02432 16.047526,-0.04308 16.311108,-0.04199 l 0.479241,0.0023 0.04578,-16.293371 c 0.03251,-11.550342 0.09401,-16.423027 0.212935,-16.738749 0.09184,-0.244958 0.25276,-0.746004 0.357223,-1.113443 0.421266,-1.480421 1.82713,-3.631813 3.13994,-4.805061 4.818348,-4.306047 12.481825,-3.728716 16.519113,1.244482 0.840148,1.035011 1.249927,1.721839 1.725457,2.892522 0.795041,1.957454 0.759037,1.167956 0.852013,18.631604 l 0.08642,16.256254 16.25222,0.03061 c 15.976208,0.03007 16.271728,0.03603 17.400108,0.341374 5.73004,1.550557 9.23032,7.076103 8.18126,12.914984 -0.38209,2.126486 -1.07633,3.638424 -2.40723,5.242193 -1.20642,1.453923 -2.72777,2.56024 -4.46589,3.247862 -2.04887,0.810565 -0.97918,0.761611 -18.640529,0.852637 l -16.389276,0.0848 -0.05121,16.182027 c -0.05445,17.422732 -0.01769,16.575062 -0.8201,18.566512 -2.045375,5.07235 -7.520708,7.94625 -12.950273,6.79732 z"
       id="path847" />
  </g>
</svg>
