<?xml version="1.0" encoding="UTF-8" standalone="no"?>
<svg
   xmlns:dc="http://purl.org/dc/elements/1.1/"
   xmlns:cc="http://creativecommons.org/ns#"
   xmlns:rdf="http://www.w3.org/1999/02/22-rdf-syntax-ns#"
   xmlns:svg="http://www.w3.org/2000/svg"
   xmlns="http://www.w3.org/2000/svg"
   xmlns:sodipodi="http://sodipodi.sourceforge.net/DTD/sodipodi-0.dtd"
   xmlns:inkscape="http://www.inkscape.org/namespaces/inkscape"
   sodipodi:docname="home.svg"
   inkscape:version="1.0 (4035a4fb49, 2020-05-01)"
   id="svg855"
   version="1.1"
   viewBox="0 0 135.46666 135.46667"
   height="512"
   width="512">
  <defs
     id="defs849" />
  <sodipodi:namedview
     inkscape:window-maximized="1"
     inkscape:window-y="-9"
     inkscape:window-x="-9"
     inkscape:window-height="1001"
     inkscape:window-width="1920"
     units="px"
     showgrid="false"
     inkscape:document-rotation="0"
     inkscape:current-layer="layer1"
     inkscape:document-units="px"
     inkscape:cy="395.06519"
     inkscape:cx="300.42053"
     inkscape:zoom="0.98994949"
     inkscape:pageshadow="2"
     inkscape:pageopacity="0.0"
     borderopacity="1.0"
     bordercolor="#666666"
     pagecolor="#ffffff"
     id="base" />
  <metadata
     id="metadata852">
    <rdf:RDF>
      <cc:Work
         rdf:about="">
        <dc:format>image/svg+xml</dc:format>
        <dc:type
           rdf:resource="http://purl.org/dc/dcmitype/StillImage" />
        <dc:title></dc:title>
      </cc:Work>
    </rdf:RDF>
  </metadata>
  <g
     id="layer1"
     inkscape:groupmode="layer"
     inkscape:label="Capa 1">
    <path
       id="path1432"
       d="m 35.175969,116.04384 c -2.630823,-0.70696 -5.286884,-2.76587 -6.6935,-5.18858 -1.425124,-2.45461 -1.462847,-2.97948 -1.462847,-20.35495 V 74.470062 L 25.0992,74.346819 c -4.524344,-0.290355 -8.006774,-3.339956 -8.869642,-7.767248 -0.369339,-1.895037 -0.04501,-4.174973 0.849922,-5.97456 0.765526,-1.539387 44.374066,-45.18774 45.966524,-46.008496 1.888902,-0.973542 4.144201,-1.319599 6.096648,-0.935479 0.899836,0.177032 2.127765,0.576919 2.728733,0.888638 1.683595,0.873277 44.771645,43.798706 45.796955,45.62411 3.50966,6.248432 -0.58078,13.712662 -7.76736,14.173868 l -1.90743,0.12241 -0.004,15.936747 c -0.005,19.411581 0.0302,19.158111 -3.093,22.432471 -3.24839,3.4056 -4.21785,3.62601 -15.948814,3.62601 -7.568955,0 -9.239543,-0.0665 -9.870658,-0.39285 -1.637063,-0.84655 -1.580316,-0.33164 -1.580316,-14.34046 0,-14.347967 -0.0468,-14.79463 -1.704521,-16.250079 -0.500569,-0.43951 -1.357013,-0.92321 -1.903201,-1.074887 -1.282261,-0.356086 -11.470707,-0.359474 -12.749788,-0.0042 -1.18075,0.327927 -2.429466,1.334621 -3.040986,2.451594 -0.40368,0.737349 -0.464331,2.220207 -0.582078,14.231142 -0.141804,14.46317 -0.11738,14.23042 -1.572158,14.98271 -1.110261,0.57413 -18.617389,0.55358 -20.768173,-0.0243 z"
       style="fill:#ffffff;stroke-width:0.262902" />
  </g>
</svg>
