<?xml version="1.0" encoding="UTF-8" standalone="no"?>
<svg
   xmlns:dc="http://purl.org/dc/elements/1.1/"
   xmlns:cc="http://creativecommons.org/ns#"
   xmlns:rdf="http://www.w3.org/1999/02/22-rdf-syntax-ns#"
   xmlns:svg="http://www.w3.org/2000/svg"
   xmlns="http://www.w3.org/2000/svg"
   xmlns:sodipodi="http://sodipodi.sourceforge.net/DTD/sodipodi-0.dtd"
   xmlns:inkscape="http://www.inkscape.org/namespaces/inkscape"
   width="512"
   height="512"
   viewBox="0 0 135.46666 135.46667"
   version="1.1"
   id="svg855"
   inkscape:version="1.0 (4035a4fb49, 2020-05-01)"
   sodipodi:docname="home.svg">
  <defs
     id="defs849" />
  <sodipodi:namedview
     id="base"
     pagecolor="#ffffff"
     bordercolor="#666666"
     borderopacity="1.0"
     inkscape:pageopacity="0.0"
     inkscape:pageshadow="2"
     inkscape:zoom="0.35"
     inkscape:cx="400"
     inkscape:cy="560"
     inkscape:document-units="px"
     inkscape:current-layer="layer1"
     inkscape:document-rotation="0"
     showgrid="false"
     units="px"
     inkscape:window-width="1920"
     inkscape:window-height="1001"
     inkscape:window-x="-9"
     inkscape:window-y="-9"
     inkscape:window-maximized="1" />
  <metadata
     id="metadata852">
    <rdf:RDF>
      <cc:Work
         rdf:about="">
        <dc:format>image/svg+xml</dc:format>
        <dc:type
           rdf:resource="http://purl.org/dc/dcmitype/StillImage" />
        <dc:title />
      </cc:Work>
    </rdf:RDF>
  </metadata>
  <g
     inkscape:label="Capa 1"
     inkscape:groupmode="layer"
     id="layer1">
    <path
       style="fill:#ffffff;stroke-width:0.314816"
       d="m 28.790578,128.0058 c -3.150318,-0.84656 -6.330859,-3.31203 -8.015231,-6.21315 -1.706537,-2.9393 -1.751708,-3.56782 -1.751708,-24.374327 V 78.222663 L 16.724001,78.075084 C 11.306257,77.727394 7.1361703,74.075603 6.1029151,68.774077 5.6606452,66.504836 6.0490265,63.774693 7.1206665,61.61975 8.0373576,59.776388 60.257055,7.5090163 62.163968,6.5261896 64.425862,5.360407 67.126504,4.9460166 69.46449,5.4059868 c 1.077523,0.2119897 2.547924,0.6908405 3.267562,1.064113 2.016046,1.0457178 53.612468,52.4474142 54.840238,54.6332722 4.20269,7.482278 -0.69546,16.420431 -9.30114,16.97271 l -2.28408,0.146581 -0.005,19.083696 c -0.006,23.244691 0.0362,22.941171 -3.70375,26.862091 -3.88984,4.07809 -5.05073,4.34203 -19.098148,4.34203 -9.063558,0 -11.064029,-0.0796 -11.819767,-0.47043 -1.960325,-1.01372 -1.892372,-0.39713 -1.892372,-17.1722 0,-17.181184 -0.05604,-17.716047 -2.041105,-19.458896 -0.599414,-0.526298 -1.624976,-1.105512 -2.279016,-1.287139 -1.535463,-0.426401 -13.73577,-0.430458 -15.267425,-0.0051 -1.413907,0.39268 -2.909201,1.598161 -3.641474,2.935697 -0.483392,0.882949 -0.55602,2.65862 -0.697018,17.041288 -0.169805,17.31914 -0.140558,17.04043 -1.882604,17.94127 -1.329499,0.68751 -22.29367,0.6629 -24.86916,-0.0292 z"
       id="path1432" />
  </g>
</svg>
