<?xml version="1.0" encoding="UTF-8" standalone="no"?>
<svg
   xmlns:dc="http://purl.org/dc/elements/1.1/"
   xmlns:cc="http://creativecommons.org/ns#"
   xmlns:rdf="http://www.w3.org/1999/02/22-rdf-syntax-ns#"
   xmlns:svg="http://www.w3.org/2000/svg"
   xmlns="http://www.w3.org/2000/svg"
   xmlns:sodipodi="http://sodipodi.sourceforge.net/DTD/sodipodi-0.dtd"
   xmlns:inkscape="http://www.inkscape.org/namespaces/inkscape"
   sodipodi:docname="key_icon.svg"
   inkscape:version="1.0 (4035a4fb49, 2020-05-01)"
   id="svg869"
   version="1.1"
   viewBox="0 0 512 512"
   height="512mm"
   width="512mm">
  <defs
     id="defs863" />
  <sodipodi:namedview
     inkscape:window-maximized="1"
     inkscape:window-y="-9"
     inkscape:window-x="1911"
     inkscape:window-height="1464"
     inkscape:window-width="2743"
     showgrid="false"
     inkscape:document-rotation="0"
     inkscape:current-layer="layer1"
     inkscape:document-units="mm"
     inkscape:cy="560"
     inkscape:cx="400"
     inkscape:zoom="0.35"
     inkscape:pageshadow="2"
     inkscape:pageopacity="0.0"
     borderopacity="1.0"
     bordercolor="#666666"
     pagecolor="#ffffff"
     id="base" />
  <metadata
     id="metadata866">
    <rdf:RDF>
      <cc:Work
         rdf:about="">
        <dc:format>image/svg+xml</dc:format>
        <dc:type
           rdf:resource="http://purl.org/dc/dcmitype/StillImage" />
        <dc:title></dc:title>
      </cc:Work>
    </rdf:RDF>
  </metadata>
  <g
     id="layer1"
     inkscape:groupmode="layer"
     inkscape:label="Capa 1">
    <g
       style="fill:#ffffff"
       transform="matrix(1.1285188,0,0,1.1285188,3.9616998,15.57561)"
       id="g1460">
      <path
         id="path1464"
         d="m 133.94685,368.38505 -0.0646,-22.15886 -0.0692,22.02656 -0.0692,22.02657 H 89.824539 45.905213 V 368.25297 346.22662 L 108.67761,283.38786 171.45,220.54911 108.54532,283.38744 45.64063,346.22577 v 22.15906 22.15907 h 44.185417 44.185413 z m 44.25003,-43.98698 v -21.96042 h 21.89527 21.89528 l 13.09587,-13.11828 c 7.20273,-7.21505 13.334,-13.22016 13.62504,-13.34468 0.35233,-0.15075 0.39621,-0.23202 0.1313,-0.24318 -0.21883,-0.009 -6.3501,5.93635 -13.62505,13.21239 l -13.22718,13.22917 H 199.95985 177.9323 v 22.09271 c 0,12.15098 0.0595,22.0927 0.13229,22.0927 0.0728,0 0.13229,-9.88218 0.13229,-21.96041 z m 105.09874,-44.37949 c -0.62231,-0.0559 -1.57481,-0.0551 -2.11667,0.002 -0.54186,0.0568 -0.0327,0.10258 1.13147,0.10162 1.16417,-0.001 1.60751,-0.0475 0.9852,-0.10337 z m -8.72426,0.003 c -0.47294,-0.0587 -1.24685,-0.0587 -1.71979,0 -0.47295,0.0587 -0.086,0.10671 0.85989,0.10671 0.94589,0 1.33284,-0.048 0.8599,-0.10671 z m 12.7,-0.25991 c -0.32742,-0.0631 -0.8632,-0.0631 -1.19063,0 -0.32742,0.0631 -0.0595,0.11466 0.59532,0.11466 0.65484,0 0.92273,-0.0516 0.59531,-0.11466 z m -16.53646,0.004 c -0.25466,-0.0665 -0.67138,-0.0665 -0.92604,0 -0.25466,0.0666 -0.0463,0.121 0.46302,0.121 0.50932,0 0.71768,-0.0545 0.46302,-0.121 z m 19.31458,-0.26458 c -0.25466,-0.0666 -0.67138,-0.0666 -0.92604,0 -0.25466,0.0666 -0.0463,0.121 0.46302,0.121 0.50933,0 0.71769,-0.0544 0.46302,-0.121 z m -21.69583,0 c -0.25466,-0.0666 -0.67138,-0.0666 -0.92604,0 -0.25466,0.0666 -0.0463,0.121 0.46302,0.121 0.50932,0 0.71768,-0.0544 0.46302,-0.121 z m 24.07708,-0.26459 c -0.25466,-0.0665 -0.67138,-0.0665 -0.92604,0 -0.25466,0.0666 -0.0463,0.12101 0.46302,0.12101 0.50933,0 0.71769,-0.0545 0.46302,-0.12101 z m -26.19878,-10e-4 c -0.25743,-0.0671 -0.61462,-0.0627 -0.79375,0.01 -0.17913,0.0725 0.0315,0.12736 0.46805,0.12197 0.43657,-0.005 0.58313,-0.0647 0.3257,-0.13177 z m 27.91858,-0.25637 c -0.18191,-0.0734 -0.47956,-0.0734 -0.66146,0 -0.1819,0.0734 -0.0331,0.13345 0.33073,0.13345 0.3638,0 0.51263,-0.0601 0.33073,-0.13345 z m -29.77066,-0.008 c -0.25744,-0.0671 -0.61462,-0.0627 -0.79375,0.01 -0.17914,0.0725 0.0315,0.12736 0.46805,0.12197 0.43656,-0.005 0.58313,-0.0647 0.3257,-0.13177 z m 31.62274,-0.25646 c -0.1819,-0.0734 -0.47956,-0.0734 -0.66146,0 -0.1819,0.0734 -0.0331,0.13345 0.33073,0.13345 0.3638,0 0.51263,-0.0601 0.33073,-0.13345 z m -33.35404,-0.006 c -0.19099,-0.0764 -0.4192,-0.067 -0.50712,0.0209 -0.0879,0.0879 0.0684,0.15045 0.34727,0.13896 0.30823,-0.0127 0.37092,-0.0754 0.15985,-0.15985 z m 34.94154,-0.25908 c -0.1819,-0.0734 -0.47956,-0.0734 -0.66146,0 -0.1819,0.0734 -0.0331,0.13345 0.33073,0.13345 0.3638,0 0.51263,-0.06 0.33073,-0.13345 z m -36.24792,0 c -0.1819,-0.0734 -0.47955,-0.0734 -0.66146,0 -0.1819,0.0734 -0.0331,0.13345 0.33073,0.13345 0.36381,0 0.51263,-0.06 0.33073,-0.13345 z m 37.83542,-0.26458 c -0.1819,-0.0734 -0.47956,-0.0734 -0.66146,0 -0.1819,0.0734 -0.0331,0.13345 0.33073,0.13345 0.3638,0 0.51263,-0.06 0.33073,-0.13345 z m -39.43945,-0.005 c -0.191,-0.0764 -0.4192,-0.067 -0.50712,0.0209 -0.0879,0.0879 0.0684,0.15045 0.34726,0.13897 0.30823,-0.0127 0.37092,-0.0754 0.15986,-0.15986 z m 40.48125,-0.26459 c -0.191,-0.0764 -0.4192,-0.067 -0.50712,0.0209 -0.0879,0.0879 0.0684,0.15045 0.34726,0.13896 0.30823,-0.0127 0.37092,-0.0754 0.15986,-0.15985 z m -41.80417,0 c -0.191,-0.0764 -0.4192,-0.067 -0.50712,0.0209 -0.0879,0.0879 0.0684,0.15045 0.34727,0.13896 0.30822,-0.0127 0.37092,-0.0754 0.15985,-0.15985 z m 43.12708,-0.26458 c -0.19099,-0.0764 -0.4192,-0.067 -0.50712,0.0209 -0.0879,0.0879 0.0684,0.15046 0.34727,0.13897 0.30823,-0.0127 0.37092,-0.0754 0.15985,-0.15985 z m -44.45,0 c -0.19099,-0.0764 -0.4192,-0.067 -0.50712,0.0209 -0.0879,0.0879 0.0684,0.15046 0.34727,0.13897 0.30823,-0.0127 0.37092,-0.0754 0.15985,-0.15985 z m 45.77292,-0.26458 c -0.191,-0.0764 -0.4192,-0.067 -0.50712,0.0209 -0.0879,0.0879 0.0684,0.15045 0.34727,0.13897 0.30822,-0.0127 0.37092,-0.0754 0.15985,-0.15986 z m -47.09583,0 c -0.191,-0.0764 -0.4192,-0.067 -0.50712,0.0209 -0.0879,0.0879 0.0683,0.15045 0.34726,0.13897 0.30823,-0.0127 0.37092,-0.0754 0.15986,-0.15986 z m -1.05834,-0.26459 c -0.19099,-0.0764 -0.4192,-0.067 -0.50712,0.0209 -0.0879,0.0879 0.0684,0.15045 0.34727,0.13896 0.30823,-0.0127 0.37092,-0.0754 0.15985,-0.15985 z m -1.32291,-0.26458 c -0.191,-0.0764 -0.4192,-0.067 -0.50712,0.0209 -0.0879,0.0879 0.0683,0.15046 0.34726,0.13897 0.30823,-0.0127 0.37092,-0.0754 0.15986,-0.15985 z m 52.91666,-0.26458 c -0.19099,-0.0764 -0.4192,-0.067 -0.50712,0.0209 -0.0879,0.0879 0.0684,0.15045 0.34727,0.13897 0.30823,-0.0127 0.37092,-0.0754 0.15985,-0.15986 z m -53.975,0 c -0.19099,-0.0764 -0.4192,-0.067 -0.50712,0.0209 -0.0879,0.0879 0.0684,0.15045 0.34727,0.13897 0.30823,-0.0127 0.37092,-0.0754 0.15985,-0.15986 z m 55.03334,-0.26459 c -0.191,-0.0764 -0.4192,-0.067 -0.50712,0.0209 -0.0879,0.0879 0.0684,0.15045 0.34726,0.13896 0.30823,-0.0127 0.37092,-0.0754 0.15986,-0.15985 z m -57.41459,-0.26458 c -0.19099,-0.0764 -0.4192,-0.067 -0.50712,0.0209 -0.0879,0.0879 0.0684,0.15046 0.34727,0.13897 0.30823,-0.0127 0.37092,-0.0754 0.15985,-0.15985 z m 59.26667,-0.26458 c -0.191,-0.0764 -0.4192,-0.067 -0.50712,0.0209 -0.0879,0.0879 0.0684,0.15045 0.34727,0.13897 0.30822,-0.0127 0.37092,-0.0754 0.15985,-0.15986 z m 1.85208,-0.52917 c -0.19099,-0.0764 -0.4192,-0.067 -0.50712,0.0209 -0.0879,0.0879 0.0684,0.15046 0.34727,0.13897 0.30823,-0.0127 0.37092,-0.0754 0.15985,-0.15985 z m 11.06289,-3.78802 c 0.21828,-0.14107 0.27782,-0.25648 0.13229,-0.25648 -0.14552,0 -0.44317,0.11541 -0.66145,0.25648 -0.21828,0.14107 -0.27782,0.25648 -0.1323,0.25648 0.14553,0 0.44318,-0.11541 0.66146,-0.25648 z m 3.70417,-1.5875 c 0.21828,-0.14107 0.27781,-0.25648 0.13229,-0.25648 -0.14552,0 -0.44318,0.11541 -0.66146,0.25648 -0.21828,0.14107 -0.27781,0.25648 -0.13229,0.25648 0.14552,0 0.44318,-0.11541 0.66146,-0.25648 z m 5.09323,-2.39735 c 1.41883,-0.72158 2.57969,-1.37142 2.57969,-1.4441 0,-0.11829 -5.26529,2.43264 -5.53421,2.68121 -0.39553,0.36562 0.72874,-0.10513 2.95452,-1.23711 z m 4.57964,-2.51204 c 0.49319,-0.39512 0.48994,-0.40001 -0.0817,-0.12298 -0.32743,0.15867 -0.59532,0.34383 -0.59532,0.41147 0,0.20246 0.13722,0.144 0.67704,-0.28849 z m 3.70416,-2.11667 c 0.49319,-0.39512 0.48995,-0.40001 -0.0817,-0.12298 -0.32742,0.15867 -0.59531,0.34383 -0.59531,0.41147 0,0.20247 0.13722,0.144 0.67703,-0.28849 z m 2.11667,-1.32291 c 0.49319,-0.39513 0.48995,-0.40001 -0.0817,-0.12298 -0.32742,0.15866 -0.59531,0.34383 -0.59531,0.41147 0,0.20246 0.13721,0.14399 0.67703,-0.28849 z m 5.17755,-3.49113 c 0.32911,-0.41965 0.31975,-0.42901 -0.0999,-0.0999 -0.25466,0.19972 -0.46302,0.40808 -0.46302,0.46302 0,0.21776 0.21728,0.0776 0.56292,-0.36312 z m 1.85208,-1.32292 c 0.32911,-0.41965 0.31975,-0.429 -0.0999,-0.0999 -0.44073,0.34565 -0.58089,0.56292 -0.36313,0.56292 0.0549,0 0.2633,-0.20836 0.46302,-0.46302 z m 1.05834,-0.79375 c 0.3291,-0.41965 0.31975,-0.429 -0.0999,-0.0999 -0.25466,0.19972 -0.46302,0.40808 -0.46302,0.46302 0,0.21777 0.21727,0.0776 0.56292,-0.36312 z m 1.05833,-0.79375 c 0.32911,-0.41965 0.31975,-0.429 -0.0999,-0.0999 -0.44073,0.34565 -0.58088,0.56292 -0.36312,0.56292 0.0549,0 0.2633,-0.20836 0.46302,-0.46302 z m 1.18201,-0.92604 0.50403,-0.59532 -0.59531,0.50403 c -0.55945,0.47367 -0.71576,0.6866 -0.50403,0.6866 0.0502,0 0.3181,-0.26789 0.59531,-0.59531 z m 1.32292,-1.05834 0.50403,-0.59531 -0.59531,0.50403 c -0.55945,0.47366 -0.71577,0.6866 -0.50403,0.6866 0.0502,0 0.3181,-0.26789 0.59531,-0.59532 z m 1.4501,-1.19062 0.64143,-0.7276 -0.72761,0.64143 c -0.68005,0.59951 -0.84894,0.81377 -0.64143,0.81377 0.0474,0 0.37482,-0.32742 0.72761,-0.7276 z m 1.71641,-1.45521 0.7771,-0.8599 -0.85989,0.77711 c -0.47295,0.42741 -0.8599,0.81436 -0.8599,0.8599 0,0.2044 0.21832,0.0244 0.94269,-0.77711 z m 2.49689,-2.18281 c 0.64268,-0.65485 1.10898,-1.19063 1.03622,-1.19063 -0.0728,0 -0.65812,0.53578 -1.3008,1.19063 -0.64268,0.65484 -1.10898,1.19062 -1.03622,1.19062 0.0728,0 0.65812,-0.53578 1.3008,-1.19062 z m 4.23918,-4.0349 2.24311,-2.3151 -2.3151,2.24311 c -1.27331,1.23372 -2.3151,2.27552 -2.3151,2.31511 0,0.19251 0.30375,-0.0929 2.38709,-2.24312 z m 3.84306,-4.10104 1.04589,-1.12448 -1.12448,1.04589 c -1.04576,0.97266 -1.24606,1.20307 -1.04589,1.20307 0.0432,0 0.54925,-0.50602 1.12448,-1.12448 z m 2.25654,-2.51354 0.64143,-0.7276 -0.7276,0.64143 c -0.68006,0.59951 -0.84894,0.81377 -0.64143,0.81377 0.0474,0 0.37481,-0.32742 0.7276,-0.7276 z m 1.5875,-1.85208 0.64143,-0.72761 -0.7276,0.64143 c -0.68006,0.59952 -0.84894,0.81378 -0.64143,0.81378 0.0474,0 0.37481,-0.32742 0.7276,-0.7276 z m 1.19574,-1.45521 0.50402,-0.59532 -0.59531,0.50403 c -0.55944,0.47367 -0.71576,0.6866 -0.50403,0.6866 0.0502,0 0.3181,-0.26789 0.59532,-0.59531 z m 0.93465,-1.19063 c 0.32911,-0.41964 0.31975,-0.429 -0.0999,-0.0999 -0.44073,0.34564 -0.58088,0.56291 -0.36312,0.56291 0.0549,0 0.2633,-0.20836 0.46302,-0.46302 z m 0.91743,-1.19062 0.50403,-0.59531 -0.59531,0.50402 c -0.32743,0.27722 -0.59532,0.54511 -0.59532,0.59532 0,0.21173 0.21294,0.0554 0.6866,-0.50403 z m 0.93465,-1.19063 c 0.32911,-0.41964 0.31975,-0.429 -0.0999,-0.0999 -0.44073,0.34564 -0.58089,0.56291 -0.36313,0.56291 0.0549,0 0.2633,-0.20836 0.46302,-0.46302 z m 1.32292,-1.85208 c 0.32911,-0.41965 0.31975,-0.429 -0.0999,-0.0999 -0.44072,0.34565 -0.58088,0.56292 -0.36312,0.56292 0.0549,0 0.2633,-0.20836 0.46302,-0.46302 z m 1.32292,-1.85208 c 0.3291,-0.41965 0.31974,-0.42901 -0.0999,-0.0999 -0.44073,0.34564 -0.58089,0.56292 -0.36313,0.56292 0.055,0 0.26331,-0.20836 0.46303,-0.46302 z m 2.3475,-3.50573 c 0.15576,-0.29104 0.22367,-0.52917 0.15091,-0.52917 -0.0728,0 -0.25974,0.23813 -0.4155,0.52917 -0.15576,0.29104 -0.22367,0.52916 -0.15091,0.52916 0.0728,0 0.25974,-0.23812 0.4155,-0.52916 z m 1.32291,-2.11667 c 0.15576,-0.29104 0.22367,-0.52917 0.15091,-0.52917 -0.0728,0 -0.25973,0.23813 -0.41549,0.52917 -0.15576,0.29104 -0.22367,0.52917 -0.15091,0.52917 0.0728,0 0.25973,-0.23813 0.41549,-0.52917 z m 0.79375,-1.32292 c 0.15576,-0.29104 0.22367,-0.52916 0.15091,-0.52916 -0.0728,0 -0.25973,0.23812 -0.41549,0.52916 -0.15576,0.29105 -0.22367,0.52917 -0.15091,0.52917 0.0728,0 0.25973,-0.23812 0.41549,-0.52917 z m -210.35185,0.13229 c 0,-0.14552 -0.11541,-0.44317 -0.25648,-0.66145 -0.14107,-0.21828 -0.25648,-0.27782 -0.25648,-0.13229 0,0.14552 0.11541,0.44317 0.25648,0.66145 0.14107,0.21828 0.25648,0.27782 0.25648,0.13229 z m 211.1456,-1.4552 c 0.15576,-0.29105 0.22367,-0.52917 0.15091,-0.52917 -0.0728,0 -0.25973,0.23812 -0.41549,0.52917 -0.15576,0.29104 -0.22367,0.52916 -0.15091,0.52916 0.0728,0 0.25973,-0.23812 0.41549,-0.52916 z m -211.93935,-0.39688 c 0,-0.14552 -0.11541,-0.44318 -0.25648,-0.66146 -0.14107,-0.21828 -0.25648,-0.27781 -0.25648,-0.13229 0,0.14552 0.11541,0.44318 0.25648,0.66146 0.14107,0.21828 0.25648,0.27781 0.25648,0.13229 z m -0.79375,-1.85208 c 0,-0.14552 -0.11541,-0.44318 -0.25648,-0.66146 -0.14107,-0.21828 -0.25648,-0.27781 -0.25648,-0.13229 0,0.14552 0.11541,0.44318 0.25648,0.66146 0.14107,0.21828 0.25648,0.27781 0.25648,0.13229 z m -0.79375,-1.85209 c 0,-0.14552 -0.11541,-0.44317 -0.25648,-0.66145 -0.14107,-0.21828 -0.25648,-0.27782 -0.25648,-0.1323 0,0.14553 0.11541,0.44318 0.25648,0.66146 0.14107,0.21828 0.25648,0.27782 0.25648,0.13229 z m 216.58044,-1.47281 c 0.0959,-0.1552 0.11766,-0.33893 0.0483,-0.40828 -0.0693,-0.0694 -0.1966,0.0576 -0.28277,0.28218 -0.17891,0.46623 -0.0264,0.54824 0.23447,0.1261 z m 0.79559,-1.59448 c 0.23274,-0.45009 0.3762,-0.86531 0.31879,-0.92272 -0.0574,-0.0574 -0.30238,0.31084 -0.54439,0.81834 -0.54414,1.14107 -0.3556,1.2283 0.2256,0.10438 z m 1.80668,-3.8221 c 0.25532,-0.66535 0.18,-0.83702 -0.13191,-0.30066 -0.15443,0.26558 -0.22505,0.5386 -0.15693,0.60673 0.0681,0.0681 0.1981,-0.0696 0.28884,-0.30607 z m -221.82854,0.27481 c 0,-0.14552 -0.11542,-0.44318 -0.25648,-0.66146 -0.14107,-0.21828 -0.25648,-0.27781 -0.25648,-0.13229 0,0.14552 0.11541,0.44318 0.25648,0.66146 0.14106,0.21828 0.25648,0.27781 0.25648,0.13229 z m 223.41604,-3.97898 c 0.25532,-0.66534 0.18,-0.83702 -0.13191,-0.30065 -0.15443,0.26557 -0.22505,0.5386 -0.15693,0.60672 0.0681,0.0681 0.1981,-0.0696 0.28884,-0.30607 z m 2.11667,-5.55625 c 0.25531,-0.66534 0.17999,-0.83702 -0.13191,-0.30065 -0.15443,0.26557 -0.22505,0.5386 -0.15693,0.60672 0.0681,0.0681 0.1981,-0.0696 0.28884,-0.30607 z m 1.467,-4.50973 c -0.0127,-0.30823 -0.0754,-0.37092 -0.15985,-0.15986 -0.0764,0.191 -0.067,0.4192 0.0209,0.50712 0.0879,0.0879 0.15045,-0.0683 0.13896,-0.34726 z m -232.03958,-0.79375 c -0.0127,-0.30823 -0.0754,-0.37092 -0.15985,-0.15986 -0.0764,0.191 -0.067,0.4192 0.0209,0.50712 0.0879,0.0879 0.15046,-0.0684 0.13897,-0.34726 z m 232.83333,-1.85209 c -0.0127,-0.30822 -0.0754,-0.37092 -0.15985,-0.15985 -0.0764,0.191 -0.067,0.4192 0.0209,0.50712 0.0879,0.0879 0.15045,-0.0684 0.13896,-0.34727 z m -233.62708,-1.05833 c -0.0127,-0.30823 -0.0754,-0.37092 -0.15985,-0.15985 -0.0764,0.19099 -0.067,0.4192 0.0209,0.50712 0.0879,0.0879 0.15046,-0.0684 0.13897,-0.34727 z m 234.42083,-1.85208 c -0.0127,-0.30823 -0.0754,-0.37092 -0.15985,-0.15986 -0.0764,0.191 -0.067,0.4192 0.0209,0.50712 0.0879,0.0879 0.15045,-0.0683 0.13896,-0.34726 z m 0.26459,-1.05834 c -0.0127,-0.30822 -0.0754,-0.37092 -0.15986,-0.15985 -0.0764,0.191 -0.067,0.4192 0.0209,0.50712 0.0879,0.0879 0.15045,-0.0684 0.13897,-0.34727 z m 0.26458,-1.05833 c -0.0127,-0.30823 -0.0754,-0.37092 -0.15985,-0.15985 -0.0764,0.19099 -0.067,0.4192 0.0209,0.50712 0.0879,0.0879 0.15046,-0.0684 0.13897,-0.34727 z M 159.39057,186.1314 c -0.0127,-0.30823 -0.0754,-0.37092 -0.15985,-0.15986 -0.0764,0.191 -0.067,0.4192 0.0209,0.50712 0.0879,0.0879 0.15045,-0.0683 0.13896,-0.34726 z m 236.27292,-1.05834 c -0.0127,-0.30822 -0.0754,-0.37092 -0.15985,-0.15985 -0.0764,0.191 -0.067,0.4192 0.0209,0.50712 0.0879,0.0879 0.15045,-0.0684 0.13896,-0.34727 z m -236.5375,0 c -0.0127,-0.30822 -0.0754,-0.37092 -0.15985,-0.15985 -0.0764,0.191 -0.067,0.4192 0.0209,0.50712 0.0879,0.0879 0.15045,-0.0684 0.13896,-0.34727 z m 236.80209,-1.05833 c -0.0127,-0.30823 -0.0754,-0.37092 -0.15986,-0.15985 -0.0764,0.19099 -0.067,0.4192 0.0209,0.50712 0.0879,0.0879 0.15045,-0.0684 0.13897,-0.34727 z m -237.06667,-0.26458 c -0.0127,-0.30823 -0.0754,-0.37092 -0.15985,-0.15986 -0.0764,0.191 -0.067,0.4192 0.0209,0.50712 0.0879,0.0879 0.15046,-0.0684 0.13897,-0.34726 z m 237.33125,-1.05834 c -0.0127,-0.30822 -0.0754,-0.37092 -0.15985,-0.15985 -0.0764,0.191 -0.067,0.4192 0.0209,0.50712 0.0879,0.0879 0.15046,-0.0683 0.13897,-0.34727 z m -237.59584,0 c -0.0127,-0.30822 -0.0754,-0.37092 -0.15985,-0.15985 -0.0764,0.191 -0.067,0.4192 0.0209,0.50712 0.0879,0.0879 0.15045,-0.0683 0.13896,-0.34727 z m 237.86042,-1.32291 c -0.0127,-0.30823 -0.0754,-0.37092 -0.15985,-0.15986 -0.0764,0.191 -0.067,0.4192 0.0209,0.50712 0.0879,0.0879 0.15045,-0.0684 0.13896,-0.34726 z m -238.125,0 c -0.0127,-0.30823 -0.0754,-0.37092 -0.15985,-0.15986 -0.0764,0.191 -0.067,0.4192 0.0209,0.50712 0.0879,0.0879 0.15045,-0.0684 0.13896,-0.34726 z m 238.38959,-1.32292 c -0.0127,-0.30823 -0.0754,-0.37092 -0.15986,-0.15985 -0.0764,0.19099 -0.067,0.4192 0.0209,0.50712 0.0879,0.0879 0.15045,-0.0684 0.13897,-0.34727 z m -238.67506,-0.11024 c 0,-0.36381 -0.0601,-0.51263 -0.13345,-0.33073 -0.0734,0.1819 -0.0734,0.47955 0,0.66146 0.0734,0.1819 0.13345,0.0331 0.13345,-0.33073 z m -0.26458,-1.32292 c 0,-0.3638 -0.0601,-0.51263 -0.13345,-0.33073 -0.0734,0.1819 -0.0734,0.47956 0,0.66146 0.0734,0.1819 0.13345,0.0331 0.13345,-0.33073 z m 239.20422,-0.15434 c -0.0127,-0.30823 -0.0754,-0.37092 -0.15985,-0.15985 -0.0764,0.19099 -0.067,0.4192 0.0209,0.50712 0.0879,0.0879 0.15046,-0.0684 0.13897,-0.34727 z m 0.23389,-1.56545 c -0.005,-0.43656 -0.0647,-0.58313 -0.13177,-0.3257 -0.0671,0.25744 -0.0627,0.61462 0.01,0.79375 0.0725,0.17914 0.12736,-0.0315 0.12197,-0.46805 z m -239.7027,-0.13229 c 0,-0.36381 -0.06,-0.51263 -0.13345,-0.33073 -0.0734,0.1819 -0.0734,0.47955 0,0.66146 0.0734,0.1819 0.13345,0.0331 0.13345,-0.33073 z m 239.96728,-1.7198 c -0.005,-0.43656 -0.0647,-0.58312 -0.13177,-0.32569 -0.0671,0.25743 -0.0627,0.61462 0.01,0.79375 0.0725,0.17913 0.12737,-0.0315 0.12197,-0.46806 z m -240.23186,0.1323 c 0,-0.36381 -0.06,-0.51263 -0.13345,-0.33073 -0.0734,0.1819 -0.0734,0.47955 0,0.66146 0.0734,0.1819 0.13345,0.0331 0.13345,-0.33073 z m -0.27439,-1.98438 c -0.005,-0.43656 -0.0647,-0.58312 -0.13177,-0.32569 -0.0671,0.25743 -0.0627,0.61462 0.01,0.79375 0.0725,0.17913 0.12736,-0.0315 0.12197,-0.46806 z m 240.77084,-0.26458 c -0.005,-0.43656 -0.0647,-0.58313 -0.13178,-0.3257 -0.0671,0.25744 -0.0627,0.61462 0.01,0.79375 0.0725,0.17914 0.12736,-0.0315 0.12197,-0.46805 z M 156.70425,170.9399 c 0,-0.50932 -0.0545,-0.71768 -0.12101,-0.46302 -0.0665,0.25466 -0.0665,0.67138 0,0.92604 0.0666,0.25467 0.12101,0.0463 0.12101,-0.46302 z m 241.29466,-0.39687 c -0.003,-0.58209 -0.0571,-0.78906 -0.12041,-0.45994 -0.0633,0.32912 -0.0609,0.80537 0.005,1.05834 0.0662,0.25296 0.118,-0.0163 0.11507,-0.5984 z m -241.56459,-2.38125 c -0.003,-0.58208 -0.0571,-0.78906 -0.1204,-0.45994 -0.0633,0.32912 -0.0609,0.80537 0.005,1.05834 0.0662,0.25296 0.11801,-0.0163 0.11507,-0.5984 z m 241.82022,-0.79375 c -0.002,-0.72761 -0.0534,-0.99386 -0.11419,-0.59168 -0.0608,0.40219 -0.0592,0.9975 0.004,1.32292 0.0628,0.32542 0.11257,-0.004 0.11058,-0.73124 z m -242.11199,-3.96875 c 7.9e-4,-1.30969 -0.0439,-1.87883 -0.0994,-1.26475 -0.0555,0.61407 -0.0561,1.68563 -0.002,2.38125 0.0548,0.69561 0.1002,0.19319 0.10101,-1.1165 z m 242.34025,-4.49792 c -2.1e-4,-3.05594 -0.0387,-4.26985 -0.0856,-2.6976 -0.0469,1.57226 -0.0467,4.07257 3.9e-4,5.55625 0.0471,1.48368 0.0854,0.19729 0.0852,-2.85865 z m -242.33704,-5.02708 c -0.001,-1.16417 -0.0475,-1.60751 -0.10337,-0.9852 -0.0559,0.62231 -0.0551,1.57481 0.002,2.11667 0.0568,0.54186 0.10259,0.0327 0.10162,-1.13147 z m 242.10517,-3.30729 c 0,-0.80037 -0.0496,-1.12779 -0.11023,-0.72761 -0.0606,0.40018 -0.0606,1.05503 0,1.45521 0.0606,0.40018 0.11023,0.0728 0.11023,-0.7276 z m -241.82195,-1.05834 c 0,-0.65484 -0.0516,-0.92273 -0.11466,-0.59531 -0.0631,0.32742 -0.0631,0.8632 0,1.19063 0.0631,0.32742 0.11466,0.0595 0.11466,-0.59532 z m 241.57527,-2.11666 c 0,-0.50933 -0.0545,-0.71769 -0.121,-0.46302 -0.0665,0.25466 -0.0665,0.67138 0,0.92604 0.0666,0.25466 0.121,0.0463 0.121,-0.46302 z m -84.54223,0.34203 c -0.32911,-0.0633 -0.80536,-0.0609 -1.05833,0.005 -0.25296,0.0662 0.0163,0.118 0.5984,0.11507 0.58208,-0.003 0.78905,-0.0571 0.45993,-0.12041 z m -5.29166,0 c -0.32912,-0.0633 -0.80537,-0.0609 -1.05834,0.005 -0.25296,0.0662 0.0163,0.118 0.5984,0.11507 0.58208,-0.003 0.78906,-0.0571 0.45994,-0.12041 z m 7.27409,-0.2608 c -0.25743,-0.0671 -0.61462,-0.0627 -0.79375,0.01 -0.17913,0.0725 0.0315,0.12736 0.46805,0.12197 0.43657,-0.005 0.58313,-0.0647 0.3257,-0.13177 z m -9.65226,0.008 c -0.1819,-0.0734 -0.47955,-0.0734 -0.66146,0 -0.1819,0.0734 -0.0331,0.13345 0.33073,0.13345 0.36381,0 0.51263,-0.06 0.33073,-0.13345 z m 11.1125,-0.26458 c -0.1819,-0.0734 -0.47955,-0.0734 -0.66146,0 -0.1819,0.0734 -0.0331,0.13345 0.33073,0.13345 0.36381,0 0.51263,-0.0601 0.33073,-0.13345 z m -12.71653,-0.006 c -0.191,-0.0764 -0.4192,-0.067 -0.50712,0.0209 -0.0879,0.0879 0.0684,0.15045 0.34726,0.13896 0.30823,-0.0127 0.37092,-0.0754 0.15986,-0.15985 z m -147.48391,-0.61301 c 0,-0.50933 -0.0545,-0.71769 -0.12101,-0.46302 -0.0665,0.25466 -0.0665,0.67138 0,0.92604 0.0666,0.25466 0.12101,0.0463 0.12101,-0.46302 z m 161.24224,0.34842 c -0.191,-0.0764 -0.4192,-0.067 -0.50712,0.0209 -0.0879,0.0879 0.0684,0.15045 0.34727,0.13896 0.30822,-0.0127 0.37092,-0.0754 0.15985,-0.15985 z m -15.875,-0.26458 c -0.191,-0.0764 -0.4192,-0.067 -0.50712,0.0209 -0.0879,0.0879 0.0684,0.15045 0.34727,0.13896 0.30822,-0.0127 0.37092,-0.0754 0.15985,-0.15985 z m 17.72708,-0.26458 c -0.19099,-0.0764 -0.4192,-0.067 -0.50712,0.0209 -0.0879,0.0879 0.0684,0.15046 0.34727,0.13897 0.30823,-0.0127 0.37092,-0.0754 0.15985,-0.15985 z m 77.94109,-1.40676 c 0,-0.50933 -0.0545,-0.71769 -0.121,-0.46302 -0.0665,0.25466 -0.0665,0.67138 0,0.92604 0.0666,0.25466 0.121,0.0463 0.121,-0.46302 z m -99.68653,0.26458 c -0.21828,-0.14107 -0.51594,-0.25648 -0.66146,-0.25648 -0.14552,0 -0.086,0.11541 0.13229,0.25648 0.21828,0.14107 0.51594,0.25648 0.66146,0.25648 0.14552,0 0.086,-0.11541 -0.13229,-0.25648 z m 26.52448,-0.6805 c 1.02585,-0.55653 0.90966,-0.74859 -0.13229,-0.21869 -0.99735,0.50723 -1.17387,0.63869 -0.83785,0.62401 0.13339,-0.006 0.56996,-0.18822 0.97014,-0.40532 z m -167.60878,-0.37783 c 0,-0.50933 -0.0545,-0.71769 -0.121,-0.46302 -0.0665,0.25466 -0.0665,0.67138 0,0.92604 0.0666,0.25466 0.121,0.0463 0.121,-0.46302 z M 295.4073,144.1027 c 0,-0.0728 -0.23813,-0.25973 -0.52917,-0.41549 -0.29104,-0.15576 -0.52917,-0.22367 -0.52917,-0.15091 0,0.0728 0.23813,0.25973 0.52917,0.41549 0.29104,0.15576 0.52917,0.22367 0.52917,0.15091 z m 102.08739,-1.20924 c 0,-0.3638 -0.0601,-0.51263 -0.13346,-0.33073 -0.0734,0.1819 -0.0734,0.47956 0,0.66146 0.0734,0.1819 0.13346,0.0331 0.13346,-0.33073 z M 157.24322,142.232 c -0.005,-0.43656 -0.0647,-0.58312 -0.13178,-0.32569 -0.0671,0.25743 -0.0627,0.61462 0.01,0.79375 0.0725,0.17913 0.12736,-0.0315 0.12197,-0.46806 z m 239.98688,-1.19062 c 0,-0.36381 -0.06,-0.51263 -0.13345,-0.33073 -0.0734,0.1819 -0.0734,0.47955 0,0.66146 0.0734,0.1819 0.13345,0.0331 0.13345,-0.33073 z m -106.45301,0 c -0.26339,-0.29105 -0.53842,-0.52917 -0.61118,-0.52917 -0.0728,0 0.0832,0.23812 0.34659,0.52917 0.2634,0.29104 0.53843,0.52916 0.61119,0.52916 0.0728,0 -0.0832,-0.23812 -0.3466,-0.52916 z m 39.71264,-0.33073 0.50402,-0.59531 -0.59531,0.50402 c -0.55944,0.47367 -0.71576,0.6866 -0.50403,0.6866 0.0502,0 0.3181,-0.26789 0.59532,-0.59531 z m -172.97213,-0.198 c 0,-0.3638 -0.06,-0.51263 -0.13345,-0.33073 -0.0734,0.1819 -0.0734,0.47956 0,0.66146 0.0734,0.1819 0.13345,0.0331 0.13345,-0.33073 z m 131.80428,-0.66146 c -0.34178,-0.3638 -0.68094,-0.66146 -0.7537,-0.66146 -0.0728,0 0.14734,0.29766 0.48912,0.66146 0.34177,0.3638 0.68094,0.66146 0.7537,0.66146 0.0728,0 -0.14734,-0.29766 -0.48912,-0.66146 z m 44.19126,-1.91823 2.24311,-2.3151 -2.3151,2.24311 c -2.1502,2.08334 -2.43563,2.3871 -2.24312,2.3871 0.0396,0 1.08139,-1.0418 2.31511,-2.31511 z m 63.45238,1.52136 c 0,-0.36381 -0.0601,-0.51263 -0.13345,-0.33073 -0.0734,0.1819 -0.0734,0.47955 0,0.66146 0.0734,0.1819 0.13345,0.0331 0.13345,-0.33073 z m -239.18333,-0.52917 c 0,-0.3638 -0.0601,-0.51263 -0.13345,-0.33073 -0.0734,0.1819 -0.0734,0.47956 0,0.66146 0.0734,0.1819 0.13345,0.0331 0.13345,-0.33073 z M 287.3375,138.1314 c -0.26339,-0.29104 -0.53842,-0.52917 -0.61118,-0.52917 -0.0728,0 0.0832,0.23813 0.3466,0.52917 0.26339,0.29104 0.53842,0.52917 0.61118,0.52917 0.0728,0 -0.0832,-0.23813 -0.3466,-0.52917 z m 109.36344,-0.26458 c 0,-0.36381 -0.0601,-0.51263 -0.13346,-0.33073 -0.0734,0.1819 -0.0734,0.47955 0,0.66146 0.0734,0.1819 0.13346,0.0331 0.13346,-0.33073 z m -238.65417,-0.52917 c 0,-0.3638 -0.0601,-0.51263 -0.13345,-0.33073 -0.0734,0.1819 -0.0734,0.47956 0,0.66146 0.0734,0.1819 0.13345,0.0331 0.13345,-0.33073 z m 238.41047,-0.94809 c -0.0127,-0.30823 -0.0754,-0.37092 -0.15985,-0.15985 -0.0764,0.19099 -0.067,0.4192 0.0209,0.50712 0.0879,0.0879 0.15045,-0.0684 0.13896,-0.34727 z m -111.10411,-0.50712 c -0.34178,-0.3638 -0.68094,-0.66146 -0.7537,-0.66146 -0.0728,0 0.14734,0.29766 0.48912,0.66146 0.34177,0.3638 0.68094,0.66146 0.7537,0.66146 0.0728,0 -0.14734,-0.29766 -0.48912,-0.66146 z m -127.04178,0.13229 c 0,-0.3638 -0.0601,-0.51263 -0.13345,-0.33073 -0.0734,0.18191 -0.0734,0.47956 0,0.66146 0.0734,0.1819 0.13345,0.0331 0.13345,-0.33073 z m 237.88131,-0.94809 c -0.0127,-0.30822 -0.0754,-0.37092 -0.15985,-0.15985 -0.0764,0.191 -0.067,0.4192 0.0209,0.50712 0.0879,0.0879 0.15046,-0.0683 0.13897,-0.34727 z m -59.8821,-0.17639 0.50403,-0.59531 -0.59531,0.50403 c -0.55945,0.47366 -0.71577,0.6866 -0.50403,0.6866 0.0502,0 0.3181,-0.26789 0.59531,-0.59532 z m -177.73462,-0.19843 c 0,-0.36381 -0.0601,-0.51263 -0.13345,-0.33073 -0.0734,0.1819 -0.0734,0.47955 0,0.66146 0.0734,0.1819 0.13345,0.0331 0.13345,-0.33073 z m 125.98344,0.16468 c 0,-0.0549 -0.20836,-0.2633 -0.46302,-0.46302 -0.41965,-0.3291 -0.429,-0.31975 -0.0999,0.0999 0.34565,0.44073 0.56292,0.58089 0.56292,0.36312 z m 111.3687,-1.11277 c -0.0127,-0.30823 -0.0754,-0.37092 -0.15986,-0.15986 -0.0764,0.191 -0.067,0.4192 0.0209,0.50712 0.0879,0.0879 0.15045,-0.0684 0.13897,-0.34726 z m -58.68287,-0.0441 c 0.32911,-0.41965 0.31975,-0.429 -0.0999,-0.0999 -0.44073,0.34565 -0.58089,0.56292 -0.36313,0.56292 0.0549,0 0.2633,-0.20836 0.46302,-0.46302 z m -53.47958,0.0985 c 0,-0.0549 -0.20836,-0.2633 -0.46302,-0.46302 -0.41965,-0.32911 -0.429,-0.31975 -0.0999,0.0999 0.34565,0.44073 0.56292,0.58088 0.56292,0.36312 z M 158.86141,133.4791 c -0.0127,-0.30822 -0.0754,-0.37092 -0.15985,-0.15985 -0.0764,0.191 -0.067,0.4192 0.0209,0.50712 0.0879,0.0879 0.15046,-0.0684 0.13897,-0.34727 z m 236.80208,-0.79375 c -0.0127,-0.30822 -0.0754,-0.37092 -0.15985,-0.15985 -0.0764,0.191 -0.067,0.4192 0.0209,0.50712 0.0879,0.0879 0.15045,-0.0683 0.13896,-0.34727 z m -113.48536,-1.16857 c -0.15576,-0.29105 -0.34273,-0.52917 -0.41549,-0.52917 -0.0728,0 -0.005,0.23812 0.15091,0.52917 0.15576,0.29104 0.34273,0.52916 0.41549,0.52916 0.0728,0 0.005,-0.23812 -0.15091,-0.52916 z m -122.78756,-0.41893 c -0.0127,-0.30822 -0.0754,-0.37092 -0.15985,-0.15985 -0.0764,0.191 -0.067,0.4192 0.0209,0.50712 0.0879,0.0879 0.15045,-0.0683 0.13896,-0.34727 z m 179.93756,-0.63941 c 0.15576,-0.29104 0.22367,-0.52916 0.15091,-0.52916 -0.0728,0 -0.25973,0.23812 -0.41549,0.52916 -0.15576,0.29104 -0.22367,0.52917 -0.15091,0.52917 0.0728,0 0.25973,-0.23813 0.41549,-0.52917 z m -179.67297,-0.41892 c -0.0127,-0.30823 -0.0754,-0.37092 -0.15985,-0.15985 -0.0764,0.19099 -0.067,0.4192 0.0209,0.50712 0.0879,0.0879 0.15046,-0.0684 0.13897,-0.34727 z m 121.14671,-1.03048 c -0.31659,-0.65165 -0.62101,-1.13944 -0.67648,-1.08397 -0.11969,0.11969 0.9494,2.26879 1.12864,2.26879 0.0679,0 -0.13556,-0.53317 -0.45216,-1.18482 z m -120.88213,-0.0279 c -0.0127,-0.30823 -0.0754,-0.37092 -0.15985,-0.15986 -0.0764,0.191 -0.067,0.4192 0.0209,0.50712 0.0879,0.0879 0.15045,-0.0683 0.13896,-0.34726 z m 180.83091,-1.3111 c 0.25532,-0.66535 0.18,-0.83702 -0.1319,-0.30066 -0.15444,0.26558 -0.22506,0.5386 -0.15693,0.60673 0.0681,0.0681 0.1981,-0.0696 0.28883,-0.30607 z m 53.58993,-0.2764 c -0.0127,-0.30823 -0.0754,-0.37092 -0.15986,-0.15986 -0.0764,0.191 -0.067,0.4192 0.0209,0.50712 0.0879,0.0879 0.15045,-0.0683 0.13897,-0.34726 z m -233.89167,-0.26459 c -0.0127,-0.30822 -0.0754,-0.37092 -0.15985,-0.15985 -0.0764,0.191 -0.067,0.4192 0.0209,0.50712 0.0879,0.0879 0.15046,-0.0683 0.13897,-0.34727 z m 119.33987,-0.24253 c 0,-0.14552 -0.11542,-0.44318 -0.25648,-0.66146 -0.14107,-0.21828 -0.25648,-0.27781 -0.25648,-0.13229 0,0.14552 0.11541,0.44318 0.25648,0.66146 0.14106,0.21828 0.25648,0.27781 0.25648,0.13229 z m 114.02263,-1.34497 c -0.0127,-0.30822 -0.0754,-0.37092 -0.15985,-0.15985 -0.0764,0.191 -0.067,0.4192 0.0209,0.50712 0.0879,0.0879 0.15046,-0.0683 0.13897,-0.34727 z m -232.83334,-0.26458 c -0.0127,-0.30823 -0.0754,-0.37092 -0.15985,-0.15985 -0.0764,0.19099 -0.067,0.4192 0.0209,0.50712 0.0879,0.0879 0.15045,-0.0684 0.13896,-0.34727 z m 117.475,-2.38125 c -0.0127,-0.30823 -0.0754,-0.37092 -0.15985,-0.15985 -0.0764,0.19099 -0.067,0.4192 0.0209,0.50712 0.0879,0.0879 0.15045,-0.0684 0.13896,-0.34727 z m 64.02917,-0.26458 c -0.0127,-0.30823 -0.0754,-0.37092 -0.15985,-0.15986 -0.0764,0.191 -0.067,0.4192 0.0209,0.50712 0.0879,0.0879 0.15045,-0.0683 0.13896,-0.34726 z m -64.29375,-0.79375 c -0.0127,-0.30823 -0.0754,-0.37092 -0.15985,-0.15986 -0.0764,0.191 -0.067,0.4192 0.0209,0.50712 0.0879,0.0879 0.15045,-0.0684 0.13896,-0.34726 z m 64.55833,-0.26459 c -0.0127,-0.30822 -0.0754,-0.37092 -0.15985,-0.15985 -0.0764,0.191 -0.067,0.4192 0.0209,0.50712 0.0879,0.0879 0.15045,-0.0683 0.13896,-0.34727 z m -64.8438,-0.90399 c 0,-0.3638 -0.0601,-0.51263 -0.13345,-0.33073 -0.0734,0.1819 -0.0734,0.47956 0,0.66146 0.0734,0.1819 0.13345,0.0331 0.13345,-0.33073 z m 65.10839,-0.41892 c -0.0127,-0.30823 -0.0754,-0.37092 -0.15985,-0.15986 -0.0764,0.191 -0.067,0.4192 0.0209,0.50712 0.0879,0.0879 0.15046,-0.0683 0.13897,-0.34726 z m -65.37297,-1.16858 c 0,-0.3638 -0.0601,-0.51263 -0.13345,-0.33073 -0.0734,0.1819 -0.0734,0.47956 0,0.66146 0.0734,0.1819 0.13345,0.0331 0.13345,-0.33073 z m 65.59706,-0.79375 c 0,-0.50932 -0.0544,-0.71768 -0.12101,-0.46302 -0.0665,0.25466 -0.0665,0.67138 0,0.92604 0.0666,0.25466 0.12101,0.0463 0.12101,-0.46302 z m 47.94286,-0.66146 c 0,-0.14552 -0.11542,-0.44318 -0.25648,-0.66146 -0.14106,-0.21828 -0.25648,-0.27781 -0.25648,-0.13229 0,0.14552 0.11542,0.44318 0.25648,0.66146 0.14106,0.21828 0.25648,0.27781 0.25648,0.13229 z m -113.86062,-2.77812 c 0,-1.52797 -0.0437,-2.15305 -0.0972,-1.38907 -0.0534,0.76399 -0.0534,2.01414 0,2.77813 0.0534,0.76398 0.0972,0.13891 0.0972,-1.38906 z m 66.15904,0 c 0,-0.94589 -0.048,-1.33284 -0.10672,-0.8599 -0.0587,0.47294 -0.0587,1.24685 0,1.71979 0.0587,0.47295 0.10672,0.086 0.10672,-0.85989 z m -179.20321,0.91581 c 0.25532,-0.66535 0.18,-0.83702 -0.1319,-0.30066 -0.15444,0.26558 -0.22506,0.5386 -0.15694,0.60673 0.0681,0.0681 0.1981,-0.0696 0.28884,-0.30607 z m 0.52917,-1.32292 c 0.25531,-0.66534 0.17999,-0.83702 -0.13191,-0.30065 -0.15443,0.26557 -0.22505,0.5386 -0.15693,0.60672 0.0681,0.0681 0.1981,-0.0696 0.28884,-0.30607 z m 224.78812,-0.78352 c 0,-0.14552 -0.11542,-0.44318 -0.25648,-0.66146 -0.14106,-0.21828 -0.25648,-0.27781 -0.25648,-0.13229 0,0.14552 0.11542,0.44318 0.25648,0.66146 0.14106,0.21828 0.25648,0.27781 0.25648,0.13229 z m -46.35536,-2.24896 c 0,-0.50932 -0.0544,-0.71768 -0.12101,-0.46302 -0.0665,0.25466 -0.0665,0.67138 0,0.92604 0.0666,0.25467 0.12101,0.0463 0.12101,-0.46302 z m -177.10985,-0.14252 c 0.25532,-0.66534 0.18,-0.83702 -0.1319,-0.30065 -0.15444,0.26557 -0.22506,0.5386 -0.15693,0.60672 0.0681,0.0681 0.1981,-0.0696 0.28883,-0.30607 z m 111.51279,-0.65123 c 0,-0.3638 -0.0601,-0.51263 -0.13345,-0.33073 -0.0734,0.18191 -0.0734,0.47956 0,0.66146 0.0734,0.1819 0.13345,0.0331 0.13345,-0.33073 z m 110.35427,-0.66146 c 0,-0.14552 -0.17015,-0.56223 -0.37812,-0.92604 -0.20797,-0.3638 -0.37813,-0.54239 -0.37813,-0.39687 0,0.14552 0.17016,0.56224 0.37813,0.92604 0.20797,0.3638 0.37812,0.5424 0.37812,0.39687 z m -44.9813,-0.55121 c -0.0127,-0.30823 -0.0754,-0.37092 -0.15985,-0.15985 -0.0764,0.19099 -0.067,0.4192 0.0209,0.50712 0.0879,0.0879 0.15046,-0.0684 0.13897,-0.34727 z m -65.10839,-0.37483 c 0,-0.3638 -0.0601,-0.51263 -0.13345,-0.33073 -0.0734,0.18191 -0.0734,0.47956 0,0.66146 0.0734,0.1819 0.13345,0.0331 0.13345,-0.33073 z m -110.2046,-1.20292 c 0.62155,-1.30341 0.53411,-1.5252 -0.1157,-0.29346 -0.29513,0.55943 -0.4898,1.06395 -0.4326,1.12115 0.0572,0.0572 0.30394,-0.31526 0.5483,-0.82769 z m 175.0484,0.25483 c -0.0127,-0.30822 -0.0754,-0.37092 -0.15985,-0.15985 -0.0764,0.191 -0.067,0.4192 0.0209,0.50712 0.0879,0.0879 0.15045,-0.0684 0.13896,-0.34727 z m -64.55833,-0.26458 c -0.0127,-0.30823 -0.0754,-0.37092 -0.15985,-0.15985 -0.0764,0.19099 -0.067,0.4192 0.0209,0.50712 0.0879,0.0879 0.15045,-0.0684 0.13896,-0.34727 z m 64.29375,-0.79375 c -0.0127,-0.30823 -0.0754,-0.37092 -0.15985,-0.15985 -0.0764,0.19099 -0.067,0.4192 0.0209,0.50712 0.0879,0.0879 0.15045,-0.0684 0.13896,-0.34727 z m -64.02917,-0.26458 c -0.0127,-0.30823 -0.0754,-0.37092 -0.15985,-0.15986 -0.0764,0.191 -0.067,0.4192 0.0209,0.50712 0.0879,0.0879 0.15045,-0.0683 0.13896,-0.34726 z m -108.98744,-2.4915 c 0.44075,-0.87312 0.74184,-1.5875 0.66908,-1.5875 -0.0728,0 -0.49291,0.71438 -0.93366,1.5875 -0.44075,0.87313 -0.74184,1.5875 -0.66908,1.5875 0.0728,0 0.49291,-0.71437 0.93366,-1.5875 z m 110.16627,-0.93627 c 0.25532,-0.66534 0.18,-0.83702 -0.1319,-0.30065 -0.15444,0.26557 -0.22506,0.5386 -0.15693,0.60672 0.0681,0.0681 0.1981,-0.0696 0.28883,-0.30607 z m 104.5431,-1.18039 c -0.22575,-0.43657 -0.46999,-0.79375 -0.54275,-0.79375 -0.0728,0 0.0524,0.35718 0.27817,0.79375 0.22576,0.43656 0.47,0.79375 0.54276,0.79375 0.0728,0 -0.0524,-0.35719 -0.27818,-0.79375 z m -43.26747,0.39687 c 0,-0.14552 -0.11542,-0.44318 -0.25648,-0.66146 -0.14107,-0.21828 -0.25648,-0.27781 -0.25648,-0.13229 0,0.14552 0.11541,0.44318 0.25648,0.66146 0.14106,0.21828 0.25648,0.27781 0.25648,0.13229 z m -60.10566,-1.85789 c 0.3166,-0.65165 0.52007,-1.184817 0.45216,-1.184817 -0.17924,0 -1.24833,2.149097 -1.12864,2.268797 0.0555,0.0555 0.35989,-0.43233 0.67648,-1.08398 z M 171.5823,100.29598 c 0.15576,-0.29104 0.22367,-0.529163 0.15091,-0.529163 -0.0728,0 -0.25974,0.238123 -0.4155,0.529163 -0.15576,0.29104 -0.22367,0.52917 -0.15091,0.52917 0.0728,0 0.25974,-0.23813 0.4155,-0.52917 z m 211.26979,-0.529163 c -0.22576,-0.436563 -0.47,-0.79375 -0.54276,-0.79375 -0.0728,0 0.0524,0.357187 0.27817,0.79375 0.22576,0.436563 0.47,0.793753 0.54276,0.793753 0.0728,0 -0.0524,-0.35719 -0.27817,-0.793753 z M 339.32813,99.23765 c -0.15576,-0.291042 -0.34273,-0.529167 -0.41549,-0.529167 -0.0728,0 -0.005,0.238125 0.15091,0.529167 0.15576,0.291042 0.34273,0.529167 0.41549,0.529167 0.0728,0 0.005,-0.238125 -0.15091,-0.529167 z m 42.59792,-1.058333 c -0.15576,-0.291042 -0.34274,-0.529167 -0.4155,-0.529167 -0.0728,0 -0.005,0.238125 0.15091,0.529167 0.15576,0.291041 0.34274,0.529166 0.4155,0.529166 0.0728,0 0.005,-0.238125 -0.15091,-0.529166 z m -99.74792,0 c 0.15576,-0.291042 0.22367,-0.529167 0.15091,-0.529167 -0.0728,0 -0.25973,0.238125 -0.41549,0.529167 -0.15576,0.291041 -0.22367,0.529166 -0.15091,0.529166 0.0728,0 0.25973,-0.238125 0.41549,-0.529166 z M 173.43438,97.120983 c 0.15576,-0.291041 0.22367,-0.529166 0.15091,-0.529166 -0.0728,0 -0.25973,0.238125 -0.41549,0.529166 -0.15576,0.291042 -0.22367,0.529167 -0.15091,0.529167 0.0728,0 0.25973,-0.238125 0.41549,-0.529167 z M 381.1323,96.8564 c -0.15576,-0.291042 -0.34274,-0.529167 -0.4155,-0.529167 -0.0728,0 -0.005,0.238125 0.15091,0.529167 0.15576,0.291042 0.34274,0.529167 0.4155,0.529167 0.0728,0 0.005,-0.238125 -0.15091,-0.529167 z m -97.5975,-0.727604 c 0.3291,-0.419645 0.31975,-0.429004 -0.0999,-0.0999 -0.25466,0.19972 -0.46302,0.40808 -0.46302,0.463021 0,0.217762 0.21727,0.0776 0.56292,-0.363125 z m 53.94125,0.09854 c 0,-0.05494 -0.20836,-0.2633 -0.46302,-0.463021 -0.41965,-0.329107 -0.42901,-0.319749 -0.0999,0.0999 0.34564,0.440729 0.56292,0.580887 0.56292,0.363124 z m -53.1475,-1.156874 c 0.3291,-0.419646 0.31975,-0.429004 -0.0999,-0.0999 -0.25466,0.199721 -0.46302,0.408081 -0.46302,0.463021 0,0.217763 0.21727,0.0776 0.56292,-0.363124 z M 174.7573,95.004317 c 0.15576,-0.291042 0.22367,-0.529167 0.15091,-0.529167 -0.0728,0 -0.25974,0.238125 -0.4155,0.529167 -0.15576,0.291041 -0.22367,0.529166 -0.15091,0.529166 0.0728,0 0.25974,-0.238125 0.4155,-0.529166 z m 161.52812,-0.264584 c -0.26339,-0.291041 -0.53842,-0.529166 -0.61118,-0.529166 -0.0728,0 0.0832,0.238125 0.3466,0.529166 0.26339,0.291042 0.53842,0.529167 0.61118,0.529167 0.0728,0 -0.0832,-0.238125 -0.3466,-0.529167 z m -50.91226,-0.992187 0.64143,-0.727604 -0.72761,0.641432 c -0.68005,0.599516 -0.84894,0.813776 -0.64143,0.813776 0.0474,0 0.37482,-0.327422 0.72761,-0.727604 z m 48.13414,-2.050521 c -1.2305,-1.236927 -2.29681,-2.248958 -2.36957,-2.248958 -0.0728,0 0.87448,1.012031 2.10498,2.248958 1.2305,1.236927 2.29681,2.248958 2.36957,2.248958 0.0728,0 -0.87448,-1.012031 -2.10498,-2.248958 z m -46.28206,-0.06615 0.64143,-0.727604 -0.7276,0.641432 c -0.68006,0.599517 -0.84894,0.813776 -0.64143,0.813776 0.0474,0 0.37481,-0.327422 0.7276,-0.727604 z m 2.11667,-1.852083 0.64143,-0.727604 -0.72761,0.641432 c -0.68005,0.599516 -0.84894,0.813776 -0.64143,0.813776 0.0474,0 0.37482,-0.327422 0.72761,-0.727604 z m -111.11128,0 c 0.32911,-0.419645 0.31975,-0.429004 -0.0999,-0.0999 -0.44073,0.345643 -0.58088,0.562917 -0.36312,0.562917 0.0549,0 0.2633,-0.20836 0.46302,-0.463021 z m 198.40375,0.09854 c 0,-0.05494 -0.20836,-0.2633 -0.46302,-0.463021 -0.41964,-0.329107 -0.429,-0.319749 -0.0999,0.0999 0.34565,0.44073 0.56292,0.580888 0.56292,0.363125 z M 330.46459,88.9189 c -0.26339,-0.291042 -0.53842,-0.529167 -0.61118,-0.529167 -0.0728,0 0.0832,0.238125 0.34659,0.529167 0.2634,0.291042 0.53843,0.529167 0.61119,0.529167 0.0728,0 -0.0832,-0.238125 -0.3466,-0.529167 z m -39.66236,-0.330729 0.50402,-0.595313 -0.59531,0.504029 c -0.55944,0.473662 -0.71576,0.686596 -0.50403,0.686596 0.0502,0 0.3181,-0.26789 0.59532,-0.595312 z M 179.55355,87.926713 c 0.3291,-0.419646 0.31975,-0.429004 -0.0999,-0.0999 -0.44073,0.345644 -0.58089,0.562917 -0.36312,0.562917 0.0549,0 0.2633,-0.208359 0.46302,-0.46302 z m 195.75791,0.09854 c 0,-0.05494 -0.20836,-0.2633 -0.46302,-0.463021 -0.41964,-0.329107 -0.429,-0.319749 -0.0999,0.0999 0.34564,0.44073 0.56291,0.580888 0.56291,0.363125 z M 180.3473,86.868379 c 0.3291,-0.419645 0.31975,-0.429003 -0.0999,-0.0999 -0.44073,0.345644 -0.58089,0.562917 -0.36312,0.562917 0.0549,0 0.2633,-0.208359 0.46302,-0.463021 z m 194.17041,0.09854 c 0,-0.05494 -0.20836,-0.263301 -0.46302,-0.463021 -0.41964,-0.329108 -0.429,-0.319749 -0.0999,0.0999 0.34564,0.44073 0.56291,0.580887 0.56291,0.363125 z M 295.026,85.861595 c 0.49319,-0.395126 0.48994,-0.400011 -0.0817,-0.122981 -0.32743,0.158668 -0.59532,0.343828 -0.59532,0.411469 0,0.202465 0.13722,0.143997 0.67704,-0.288488 z m -113.88495,-0.05155 c 0.3291,-0.419645 0.31975,-0.429004 -0.0999,-0.0999 -0.44073,0.345643 -0.58089,0.562917 -0.36312,0.562917 0.0549,0 0.2633,-0.20836 0.46302,-0.463021 z m 192.18604,-0.330729 c -0.26339,-0.291042 -0.53842,-0.529167 -0.61118,-0.529167 -0.0728,0 0.0832,0.238125 0.34659,0.529167 0.26339,0.291041 0.53843,0.529166 0.61119,0.529166 0.0728,0 -0.0832,-0.238125 -0.3466,-0.529166 z m -47.49271,0.398814 c 0,-0.179237 -2.1491,-1.248325 -2.26879,-1.128633 -0.0555,0.05547 0.43232,0.359881 1.08397,0.676479 0.65165,0.316595 1.18482,0.520065 1.18482,0.452154 z m -143.7759,-1.25871 0.50402,-0.595313 -0.59531,0.504029 c -0.32742,0.277214 -0.59531,0.545105 -0.59531,0.595312 0,0.211733 0.21293,0.05542 0.6866,-0.504028 z m 190.60715,-0.03375 c 0,-0.05494 -0.20836,-0.263301 -0.46302,-0.463021 -0.41965,-0.329108 -0.429,-0.319749 -0.0999,0.0999 0.34565,0.44073 0.56292,0.580887 0.56292,0.363125 z m -74.6125,-0.164688 c 0.21828,-0.141065 0.27781,-0.256479 0.13229,-0.256479 -0.14552,0 -0.44318,0.115414 -0.66146,0.256479 -0.21828,0.141066 -0.27781,0.256479 -0.13229,0.256479 0.14552,0 0.44318,-0.115413 0.66146,-0.256479 z m 23.01875,-0.79375 c -0.21828,-0.141065 -0.51594,-0.256479 -0.66146,-0.256479 -0.14552,0 -0.086,0.115414 0.13229,0.256479 0.21828,0.141066 0.51594,0.256479 0.66146,0.256479 0.14552,0 0.086,-0.115413 -0.13229,-0.256479 z m -137.95507,-0.330729 0.50403,-0.595312 -0.59531,0.504028 c -0.32743,0.277215 -0.59532,0.545105 -0.59532,0.595313 0,0.211733 0.21294,0.05542 0.6866,-0.504029 z m 188.09361,-0.463021 c -0.26339,-0.291041 -0.53842,-0.529166 -0.61118,-0.529166 -0.0728,0 0.0832,0.238125 0.3466,0.529166 0.26339,0.291042 0.53842,0.529167 0.61118,0.529167 0.0728,0 -0.0832,-0.238125 -0.3466,-0.529167 z m -51.41185,0.348427 c -0.19099,-0.07643 -0.4192,-0.06703 -0.50712,0.02088 -0.0879,0.08792 0.0684,0.150453 0.34727,0.138965 0.30823,-0.0127 0.37092,-0.07539 0.15985,-0.159851 z m -17.72708,-0.264583 c -0.191,-0.07643 -0.4192,-0.06703 -0.50712,0.02088 -0.0879,0.08792 0.0684,0.150452 0.34727,0.138964 0.30822,-0.0127 0.37092,-0.07539 0.15985,-0.15985 z m 15.875,-0.264583 c -0.191,-0.07643 -0.4192,-0.06703 -0.50712,0.02088 -0.0879,0.08792 0.0684,0.150453 0.34727,0.138965 0.30822,-0.0127 0.37092,-0.07539 0.15985,-0.159851 z m -1.0418,-0.259072 c -0.1819,-0.0734 -0.47955,-0.0734 -0.66146,0 -0.1819,0.0734 -0.0331,0.133453 0.33073,0.133453 0.36381,0 0.51263,-0.06005 0.33073,-0.133453 z m -12.71653,-0.0055 c -0.191,-0.07643 -0.4192,-0.06703 -0.50712,0.02088 -0.0879,0.08792 0.0684,0.150453 0.34726,0.138964 0.30823,-0.0127 0.37092,-0.07539 0.15986,-0.15985 z m -119.88584,-0.546872 0.64143,-0.727604 -0.7276,0.641432 c -0.40018,0.35279 -0.7276,0.680212 -0.7276,0.727604 0,0.207507 0.21426,0.03862 0.81377,-0.641432 z m 131.27946,0.287792 c -0.18191,-0.0734 -0.47956,-0.0734 -0.66146,0 -0.1819,0.0734 -0.0331,0.133454 0.33073,0.133454 0.3638,0 0.51263,-0.06006 0.33073,-0.133454 z m -9.78959,0 c -0.1819,-0.0734 -0.47955,-0.0734 -0.66146,0 -0.1819,0.0734 -0.0331,0.133454 0.33073,0.133454 0.36381,0 0.51263,-0.06006 0.33073,-0.133454 z m 64.22761,-0.750813 c -0.34178,-0.363802 -0.68094,-0.661458 -0.7537,-0.661458 -0.0728,0 0.14734,0.297656 0.48911,0.661458 0.34178,0.363802 0.68094,0.661458 0.7537,0.661458 0.0728,0 -0.14734,-0.297656 -0.48911,-0.661458 z m -56.55778,0.474329 c -0.32911,-0.06329 -0.80536,-0.06088 -1.05833,0.0053 -0.25296,0.06622 0.0163,0.118004 0.5984,0.115067 0.58208,-0.0029 0.78905,-0.05712 0.45993,-0.120407 z m -5.29166,0 c -0.32912,-0.06329 -0.80537,-0.06088 -1.05834,0.0053 -0.25296,0.06622 0.0163,0.118004 0.5984,0.115067 0.58208,-0.0029 0.78906,-0.05712 0.45994,-0.120407 z m -122.41621,-1.7311 0.7771,-0.859896 -0.85989,0.777105 c -0.47294,0.427408 -0.8599,0.814361 -0.8599,0.859896 0,0.204407 0.21832,0.02445 0.94269,-0.777105 z M 368.4323,79.526192 c -0.49366,-0.509323 -0.95709,-0.926042 -1.02985,-0.926042 -0.0728,0 0.27161,0.416719 0.76526,0.926042 0.49366,0.509323 0.95709,0.926041 1.02985,0.926041 0.0728,0 -0.27161,-0.416718 -0.76526,-0.926041 z M 187.98646,77.674108 c 0.64268,-0.654843 1.10898,-1.190625 1.03622,-1.190625 -0.0728,0 -0.65812,0.535782 -1.3008,1.190625 -0.64268,0.654844 -1.10898,1.190625 -1.03622,1.190625 0.0728,0 0.65812,-0.535781 1.3008,-1.190625 z M 365.38959,76.2189 c -1.01084,-1.018646 -1.89742,-1.852083 -1.97018,-1.852083 -0.0728,0 0.69475,0.833437 1.70559,1.852083 1.01085,1.018646 1.89743,1.852083 1.97019,1.852083 0.0728,0 -0.69476,-0.833437 -1.7056,-1.852083 z m -173.42853,-2.844271 2.24311,-2.315104 -2.3151,2.243116 c -1.27331,1.233715 -2.31511,2.275512 -2.31511,2.315105 0,0.192513 0.30376,-0.09292 2.3871,-2.243117 z M 362.0823,72.971132 c 0,-0.04002 -0.92274,-0.962756 -2.05052,-2.050521 l -2.05053,-1.977753 1.97776,2.050521 c 1.83689,1.904479 2.12329,2.171242 2.12329,1.977753 z M 196.18855,69.472025 c 0.64268,-0.654844 1.10898,-1.190625 1.03622,-1.190625 -0.0728,0 -0.65813,0.535781 -1.30081,1.190625 -0.64268,0.654844 -1.10898,1.190625 -1.03622,1.190625 0.0728,0 0.65813,-0.535781 1.30081,-1.190625 z m 160.60208,-1.5875 c -0.49365,-0.509323 -0.95709,-0.926042 -1.02985,-0.926042 -0.0728,0 0.27161,0.416719 0.76527,0.926042 0.49365,0.509323 0.95708,0.926042 1.02984,0.926042 0.0728,0 -0.27161,-0.416719 -0.76526,-0.926042 z m -158.20081,-0.595312 0.64143,-0.727605 -0.7276,0.641432 c -0.40018,0.35279 -0.7276,0.680212 -0.7276,0.727605 0,0.207507 0.21426,0.03862 0.81377,-0.641432 z m 156.34873,-0.992188 c -0.34178,-0.363802 -0.68094,-0.661458 -0.7537,-0.661458 -0.0728,0 0.14734,0.297656 0.48911,0.661458 0.34178,0.363802 0.68094,0.661458 0.7537,0.661458 0.0728,0 -0.14734,-0.297656 -0.48911,-0.661458 z m -154.49664,-0.595313 0.64143,-0.727604 -0.72761,0.641432 c -0.40018,0.35279 -0.7276,0.680212 -0.7276,0.727605 0,0.207507 0.21426,0.03862 0.81378,-0.641433 z M 353.48334,65.1064 c -0.26339,-0.291042 -0.53842,-0.529167 -0.61118,-0.529167 -0.0728,0 0.0832,0.238125 0.34659,0.529167 0.2634,0.291042 0.53843,0.529167 0.61119,0.529167 0.0728,0 -0.0832,-0.238125 -0.3466,-0.529167 z m -151.58111,-0.595312 0.50402,-0.595313 -0.59531,0.504029 c -0.32742,0.277214 -0.59531,0.545105 -0.59531,0.595312 0,0.211733 0.21293,0.05542 0.6866,-0.504028 z m 150.39048,-0.298334 c 0,-0.05494 -0.20836,-0.2633 -0.46302,-0.46302 -0.41964,-0.329107 -0.429,-0.319749 -0.0999,0.0999 0.34564,0.44073 0.56291,0.580888 0.56291,0.363125 z M 203.10146,63.585046 c 0.32911,-0.419644 0.31975,-0.429002 -0.0999,-0.09989 -0.44073,0.345642 -0.58089,0.562916 -0.36313,0.562916 0.0549,0 0.2633,-0.20836 0.46302,-0.463021 z M 350.8375,62.989733 c -0.26339,-0.291041 -0.53842,-0.529166 -0.61118,-0.529166 -0.0728,0 0.0832,0.238125 0.3466,0.529166 0.26339,0.291042 0.53842,0.529167 0.61118,0.529167 0.0728,0 -0.0832,-0.238125 -0.3466,-0.529167 z m -146.41312,-0.46302 c 0.32911,-0.419644 0.31975,-0.429003 -0.0999,-0.0999 -0.25466,0.199719 -0.46302,0.408078 -0.46302,0.463021 0,0.217761 0.21728,0.0776 0.56292,-0.363126 z m 145.48708,-0.166041 c 0,-0.05494 -0.20836,-0.263302 -0.46302,-0.463021 -0.41964,-0.329107 -0.429,-0.319749 -0.0999,0.09989 0.34564,0.440729 0.56291,0.580887 0.56291,0.363126 z m -144.42875,-0.62771 c 0.32911,-0.419643 0.31975,-0.429002 -0.0999,-0.09989 -0.25466,0.199719 -0.46302,0.408078 -0.46302,0.463021 0,0.217761 0.21727,0.0776 0.56291,-0.363127 z m 143.37042,-0.16604 c 0,-0.05494 -0.20836,-0.263302 -0.46302,-0.463021 -0.41965,-0.329107 -0.429,-0.319749 -0.0999,0.09989 0.34565,0.440729 0.56292,0.580887 0.56292,0.363126 z m -142.31208,-0.62771 c 0.3291,-0.419643 0.31975,-0.429002 -0.0999,-0.09989 -0.25466,0.199719 -0.46302,0.408078 -0.46302,0.463021 0,0.217761 0.21727,0.0776 0.56292,-0.363127 z m 140.46,-0.695207 c 0,-0.05494 -0.20836,-0.263301 -0.46302,-0.463021 -0.41965,-0.329107 -0.42901,-0.319749 -0.0999,0.0999 0.34564,0.440729 0.56292,0.580887 0.56292,0.363126 z M 209.18688,59.087129 c 0.32911,-0.419644 0.31975,-0.429002 -0.0999,-0.09989 -0.44073,0.345644 -0.58088,0.562916 -0.36312,0.562916 0.0549,0 0.2633,-0.208359 0.46302,-0.463021 z m 3.5537,-2.3297 c 0.49319,-0.395127 0.48995,-0.400012 -0.0817,-0.122983 -0.32742,0.158669 -0.59531,0.343831 -0.59531,0.411471 0,0.202465 0.13721,0.143997 0.67703,-0.288488 z m 2.11667,-1.322917 c 0.49319,-0.395126 0.48994,-0.400012 -0.0817,-0.122982 -0.32743,0.158668 -0.59532,0.34383 -0.59532,0.411471 0,0.202464 0.13722,0.143996 0.67704,-0.288489 z m 125.00005,0.03321 c 0,-0.07276 -0.23813,-0.259733 -0.52917,-0.415494 -0.29104,-0.15576 -0.52917,-0.22367 -0.52917,-0.15091 0,0.07276 0.23813,0.259733 0.52917,0.415494 0.29104,0.15576 0.52917,0.22367 0.52917,0.15091 z m -1.32292,-0.79375 c 0,-0.07276 -0.23813,-0.259733 -0.52917,-0.415494 -0.29104,-0.15576 -0.52916,-0.22367 -0.52916,-0.15091 0,0.07276 0.23812,0.259733 0.52916,0.415494 0.29104,0.15576 0.52917,0.22367 0.52917,0.15091 z m -121.0313,-0.826965 c 0.49319,-0.395126 0.48995,-0.400012 -0.0817,-0.122982 -0.32742,0.158668 -0.59531,0.34383 -0.59531,0.411471 0,0.202464 0.13721,0.143996 0.67703,-0.288489 z M 336.6823,53.615643 c 0,-0.07276 -0.23813,-0.259732 -0.52917,-0.415493 -0.29104,-0.155761 -0.52917,-0.22367 -0.52917,-0.15091 0,0.07276 0.23813,0.259733 0.52917,0.415493 0.29104,0.155761 0.52917,0.223671 0.52917,0.15091 z M 219.35516,52.788679 c 0.49319,-0.395127 0.48995,-0.400012 -0.0817,-0.122983 -0.32742,0.158669 -0.59531,0.343831 -0.59531,0.411471 0,0.202465 0.13722,0.143997 0.67703,-0.288488 z m 115.47505,-0.236398 c 0,-0.07276 -0.35718,-0.317001 -0.79375,-0.542756 -0.43656,-0.225755 -0.79375,-0.350933 -0.79375,-0.278172 0,0.07276 0.35719,0.317 0.79375,0.542755 0.43657,0.225756 0.79375,0.350933 0.79375,0.278173 z M 223.9698,50.422025 c 0.94588,-0.495201 1.6271,-0.906143 1.5138,-0.913204 -0.28125,-0.01753 -3.36589,1.550283 -3.36589,1.710763 0,0.17783 -0.062,0.204549 1.85209,-0.797559 z m 103.1875,-1.852083 c -0.36381,-0.207968 -0.78052,-0.378124 -0.92605,-0.378124 -0.14552,0 0.0331,0.170156 0.39688,0.378124 0.3638,0.207968 0.78052,0.378123 0.92604,0.378123 0.14552,0 -0.0331,-0.170155 -0.39687,-0.378123 z m -98.425,-0.396875 c 0.21828,-0.141065 0.27781,-0.256481 0.13229,-0.256481 -0.14552,0 -0.44318,0.115416 -0.66146,0.256481 -0.21828,0.141064 -0.27781,0.25648 -0.13229,0.25648 0.14552,0 0.44318,-0.115416 0.66146,-0.25648 z M 325.04063,47.6439 c -0.21828,-0.141064 -0.51594,-0.25648 -0.66146,-0.25648 -0.14552,0 -0.086,0.115416 0.13229,0.25648 0.21828,0.141064 0.51594,0.25648 0.66146,0.25648 0.14552,0 0.086,-0.115416 -0.13229,-0.25648 z m -1.85208,-0.79375 c -0.21828,-0.141064 -0.51594,-0.25648 -0.66146,-0.25648 -0.14552,0 -0.086,0.115416 0.13229,0.25648 0.21828,0.141064 0.51594,0.25648 0.66146,0.25648 0.14552,0 0.086,-0.115416 -0.13229,-0.25648 z m -90.75209,-0.264583 c 0.21828,-0.141065 0.27782,-0.256481 0.13229,-0.256481 -0.14552,0 -0.44317,0.115416 -0.66145,0.256481 -0.21828,0.141064 -0.27782,0.25648 -0.1323,0.25648 0.14553,0 0.44318,-0.115416 0.66146,-0.25648 z m 2.64584,-1.058334 c 0.21828,-0.141064 0.27781,-0.25648 0.13229,-0.25648 -0.14552,0 -0.44318,0.115416 -0.66146,0.25648 -0.21828,0.141065 -0.27781,0.256481 -0.13229,0.256481 0.14552,0 0.44318,-0.115416 0.66146,-0.256481 z m 84.1375,-0.264583 c -0.21828,-0.141064 -0.51594,-0.25648 -0.66146,-0.25648 -0.14552,0 -0.086,0.115416 0.13229,0.25648 0.21828,0.141064 0.51594,0.25648 0.66146,0.25648 0.14552,0 0.086,-0.115416 -0.13229,-0.25648 z m -76.94414,-2.297407 c -0.191,-0.07643 -0.4192,-0.06703 -0.50712,0.02089 -0.0879,0.08792 0.0684,0.150453 0.34726,0.138964 0.30823,-0.0127 0.37092,-0.07539 0.15986,-0.159852 z m 2.64583,-0.79375 c -0.191,-0.07643 -0.4192,-0.06703 -0.50712,0.02089 -0.0879,0.08792 0.0684,0.150453 0.34727,0.138964 0.30822,-0.0127 0.37092,-0.07539 0.15985,-0.159852 z m 64.02917,-0.264584 c -0.191,-0.07643 -0.4192,-0.06703 -0.50712,0.02089 -0.0879,0.08792 0.0684,0.150453 0.34726,0.138965 0.30823,-0.0127 0.37092,-0.07539 0.15986,-0.159853 z m -61.11875,-0.529166 c -0.191,-0.07643 -0.4192,-0.06703 -0.50712,0.02089 -0.0879,0.08792 0.0683,0.150453 0.34726,0.138964 0.30823,-0.0127 0.37092,-0.07539 0.15986,-0.159852 z m 1.05833,-0.264584 c -0.191,-0.07643 -0.4192,-0.06703 -0.50712,0.02089 -0.0879,0.08792 0.0684,0.150453 0.34727,0.138965 0.30822,-0.0127 0.37092,-0.07539 0.15985,-0.159853 z m 1.05833,-0.264583 c -0.19099,-0.07643 -0.4192,-0.06703 -0.50712,0.02089 -0.0879,0.08792 0.0684,0.150453 0.34727,0.138964 0.30823,-0.01269 0.37092,-0.07539 0.15985,-0.159852 z m 53.71042,-0.264583 c -0.191,-0.07643 -0.4192,-0.06703 -0.50712,0.02089 -0.0879,0.08792 0.0684,0.150453 0.34727,0.138964 0.30822,-0.0127 0.37092,-0.07539 0.15985,-0.159852 z m -52.37096,0.0055 c -0.18191,-0.0734 -0.47956,-0.0734 -0.66146,0 -0.1819,0.0734 -0.0331,0.133452 0.33073,0.133452 0.3638,0 0.51263,-0.06005 0.33073,-0.133452 z m 51.04804,-0.270095 c -0.19099,-0.07643 -0.4192,-0.06703 -0.50712,0.02089 -0.0879,0.08792 0.0684,0.150453 0.34727,0.138965 0.30823,-0.0127 0.37092,-0.07539 0.15985,-0.159853 z m -50.00625,0 c -0.19099,-0.07643 -0.4192,-0.06703 -0.50712,0.02089 -0.0879,0.08792 0.0684,0.150453 0.34727,0.138965 0.30823,-0.0127 0.37092,-0.07539 0.15985,-0.159853 z m 48.94792,-0.264583 c -0.191,-0.07643 -0.4192,-0.06703 -0.50712,0.02089 -0.0879,0.08792 0.0684,0.150453 0.34727,0.138964 0.30822,-0.01269 0.37092,-0.07539 0.15985,-0.159852 z m -47.625,0 c -0.191,-0.07643 -0.4192,-0.06703 -0.50712,0.02089 -0.0879,0.08792 0.0683,0.150453 0.34727,0.138964 0.30822,-0.01269 0.37092,-0.07539 0.15985,-0.159852 z m 46.31862,-0.259071 c -0.1819,-0.0734 -0.47956,-0.0734 -0.66146,0 -0.1819,0.0734 -0.0331,0.133452 0.33073,0.133452 0.3638,0 0.51263,-0.06005 0.33073,-0.133452 z m -44.9957,-0.0055 c -0.191,-0.07643 -0.4192,-0.06703 -0.50712,0.02089 -0.0879,0.08792 0.0684,0.150453 0.34726,0.138964 0.30823,-0.0127 0.37092,-0.07539 0.15986,-0.159852 z m 43.67278,-0.259071 c -0.1819,-0.0734 -0.47955,-0.0734 -0.66146,0 -0.1819,0.0734 -0.0331,0.133452 0.33073,0.133452 0.36381,0 0.51263,-0.06005 0.33073,-0.133452 z m -42.06875,0 c -0.1819,-0.0734 -0.47955,-0.0734 -0.66146,0 -0.1819,0.0734 -0.0331,0.133452 0.33073,0.133452 0.36381,0 0.51263,-0.06005 0.33073,-0.133452 z m 40.48125,-0.264584 c -0.1819,-0.0734 -0.47955,-0.0734 -0.66146,0 -0.1819,0.0734 -0.0331,0.133452 0.33073,0.133452 0.36381,0 0.51263,-0.06005 0.33073,-0.133452 z m -39.15833,0 c -0.1819,-0.0734 -0.47956,-0.0734 -0.66146,0 -0.1819,0.0734 -0.0331,0.133452 0.33073,0.133452 0.3638,0 0.51263,-0.06005 0.33073,-0.133452 z m 37.57083,-0.264583 c -0.1819,-0.0734 -0.47955,-0.0734 -0.66146,0 -0.1819,0.0734 -0.0331,0.133452 0.33073,0.133452 0.36381,0 0.51263,-0.06005 0.33073,-0.133452 z m -35.85607,-0.0081 c -0.25744,-0.06708 -0.61462,-0.06267 -0.79375,0.0098 -0.17914,0.07248 0.0315,0.127362 0.46805,0.12197 0.43656,-0.0054 0.58313,-0.06469 0.3257,-0.131773 z m 34.00399,-0.256458 c -0.1819,-0.0734 -0.47956,-0.0734 -0.66146,0 -0.1819,0.0734 -0.0331,0.133452 0.33073,0.133452 0.3638,0 0.51263,-0.06005 0.33073,-0.133452 z m -32.15191,-0.0081 c -0.25743,-0.06708 -0.61462,-0.06267 -0.79375,0.0098 -0.17913,0.07248 0.0315,0.127362 0.46805,0.12197 0.43657,-0.0054 0.58313,-0.06469 0.3257,-0.131774 z m 30.16753,-0.263613 c -0.25466,-0.06655 -0.67138,-0.06655 -0.92604,0 -0.25466,0.06655 -0.0463,0.121 0.46302,0.121 0.50933,0 0.71769,-0.05445 0.46302,-0.121 z m -28.04583,0 c -0.25466,-0.06655 -0.67138,-0.06655 -0.92604,0 -0.25466,0.06655 -0.0463,0.121 0.46302,0.121 0.50932,0 0.71768,-0.05445 0.46302,-0.121 z m 25.52921,-0.269329 c -0.32912,-0.06329 -0.80537,-0.06088 -1.05834,0.0053 -0.25296,0.06622 0.0163,0.118004 0.5984,0.115067 0.58208,-0.0029 0.78906,-0.05712 0.45994,-0.120406 z m -23.01875,0 c -0.32912,-0.06329 -0.80537,-0.06088 -1.05834,0.0053 -0.25296,0.06622 0.0163,0.118004 0.5984,0.115067 0.58208,-0.0029 0.78906,-0.05712 0.45994,-0.120406 z m 20.24371,-0.266963 c -0.40018,-0.06062 -1.05503,-0.06062 -1.45521,0 -0.40018,0.06062 -0.0728,0.110223 0.7276,0.110223 0.80037,0 1.12779,-0.0496 0.72761,-0.110223 z m -16.93697,-3.52e-4 c -0.40219,-0.06082 -0.9975,-0.05919 -1.32292,0.0036 -0.32542,0.0628 0.004,0.11256 0.73124,0.110574 0.72761,-0.002 0.99386,-0.05337 0.59168,-0.114186 z m 10.57259,-0.272305 c -1.57226,-0.04686 -4.07257,-0.04668 -5.55625,3.92e-4 -1.48368,0.04708 -0.19729,0.08541 2.85865,0.0852 3.05594,-2.16e-4 4.26985,-0.03873 2.6976,-0.08559 z"
         style="fill:#ffffff;fill-opacity:1;stroke-width:0.264583" />
      <path
         id="path1462"
         d="m 133.74688,368.3189 v -21.96042 h 22.09271 22.09271 v -22.0927 -22.09271 h 22.02559 22.02559 l 13.23374,-13.2318 13.23374,-13.2318 3.96515,0.90928 c 12.72444,2.91793 21.29876,3.85291 30.55577,3.33193 13.75755,-0.77427 25.41251,-3.30466 38.1,-8.27183 5.0835,-1.9902 14.59105,-6.77026 19.23158,-9.66895 28.56399,-17.84245 48.56992,-46.10454 55.47664,-78.37107 2.00103,-9.34831 2.68317,-16.86078 2.47281,-27.23303 -0.25398,-12.52313 -1.90444,-22.43881 -5.65433,-33.97046 -7.64043,-23.495775 -22.1601,-44.031831 -42.02566,-59.439444 -17.28633,-13.407184 -38.11275,-21.88346 -60.19271,-24.498213 -4.85598,-0.575055 -16.87989,-0.794595 -21.86137,-0.399158 -19.92884,1.581978 -38.32965,7.696384 -55.2618,18.362948 -11.44675,7.21098 -21.89694,16.570796 -30.48203,27.301513 -21.70981,27.135624 -30.75039,61.520634 -24.95304,94.906584 1.99111,11.46649 6.09328,24.4985 12.01205,38.16054 0.81603,1.88362 1.48369,3.55059 1.48369,3.70438 0,0.15379 -28.21781,28.49724 -62.70625,62.98545 l -62.706247,62.70583 v 22.02677 22.02678 H 89.826047 133.74688 Z M 302.79611,147.05122 c -13.11345,-3.43542 -23.28488,-14.58267 -25.2597,-27.68305 -1.48481,-9.84988 2.00799,-20.04521 9.42359,-27.507003 4.59111,-4.619715 9.6377,-7.563162 15.83611,-9.236474 2.30519,-0.622306 2.98528,-0.683893 7.56014,-0.684599 4.62312,-7.94e-4 5.23134,0.05555 7.56883,0.700169 12.72945,3.510468 22.55863,13.956512 25.00928,26.578827 0.594,3.05943 0.594,8.19852 0,11.25796 -2.60453,13.41487 -13.75881,24.51189 -27.20135,27.06171 -3.13099,0.59389 -9.76296,0.34396 -12.9369,-0.48754 z"
         style="fill:#ffffff;fill-opacity:1;stroke-width:0.264583" />
    </g>
  </g>
</svg>
