<?xml version="1.0" encoding="UTF-8" standalone="no"?>
<svg
   xmlns:dc="http://purl.org/dc/elements/1.1/"
   xmlns:cc="http://creativecommons.org/ns#"
   xmlns:rdf="http://www.w3.org/1999/02/22-rdf-syntax-ns#"
   xmlns:svg="http://www.w3.org/2000/svg"
   xmlns="http://www.w3.org/2000/svg"
   xmlns:sodipodi="http://sodipodi.sourceforge.net/DTD/sodipodi-0.dtd"
   xmlns:inkscape="http://www.inkscape.org/namespaces/inkscape"
   width="512"
   height="512"
   viewBox="0 0 135.46666 135.46667"
   version="1.1"
   id="svg8"
   inkscape:version="1.0 (4035a4fb49, 2020-05-01)"
   sodipodi:docname="pencil.svg">
  <defs
     id="defs2" />
  <sodipodi:namedview
     id="base"
     pagecolor="#ffffff"
     bordercolor="#666666"
     borderopacity="1.0"
     inkscape:pageopacity="0.0"
     inkscape:pageshadow="2"
     inkscape:zoom="0.35"
     inkscape:cx="400"
     inkscape:cy="560"
     inkscape:document-units="mm"
     inkscape:current-layer="layer1"
     inkscape:document-rotation="0"
     showgrid="false"
     units="px"
     inkscape:window-width="1920"
     inkscape:window-height="1001"
     inkscape:window-x="-9"
     inkscape:window-y="-9"
     inkscape:window-maximized="1" />
  <metadata
     id="metadata5">
    <rdf:RDF>
      <cc:Work
         rdf:about="">
        <dc:format>image/svg+xml</dc:format>
        <dc:type
           rdf:resource="http://purl.org/dc/dcmitype/StillImage" />
        <dc:title />
      </cc:Work>
    </rdf:RDF>
  </metadata>
  <g
     inkscape:label="Capa 1"
     inkscape:groupmode="layer"
     id="layer1">
    <g
       id="g847"
       transform="matrix(1.3067017,0,0,1.2919548,181.56665,56.327701)"
       style="fill:#ffffff;fill-opacity:1">
      <path
         style="fill:#ffffff;fill-opacity:1;stroke-width:0.264583"
         d="m -123.29736,45.385492 -8.59743,-8.665104 8.66511,8.597431 c 8.05303,7.990147 8.78415,8.732777 8.59743,8.732777 -0.0372,0 -3.93652,-3.899297 -8.66511,-8.665104 z m 45.774447,-19.777604 c 10.9861,-10.986823 20.034258,-19.976042 20.107018,-19.976042 0.07276,0 -8.856334,8.989219 -19.842435,19.976042 -10.986101,10.986823 -20.034258,19.976041 -20.107018,19.976041 -0.07276,0 8.856334,-8.989218 19.842435,-19.976041 z m -45.097117,3.05707 c -2.17129,-2.174915 -4.06344,-3.882925 -4.20476,-3.795581 -0.14993,0.09266 -0.17079,0.01937 -0.0501,-0.175934 0.14324,-0.23177 1.4581,0.914513 4.27421,3.72623 2.23703,2.233538 4.06733,4.092186 4.06733,4.130326 0,0.187333 -0.41468,-0.206881 -4.0867,-3.885041 z m 19.16795,-28.986237 c 10.986101,-10.986823 20.034258,-19.976042 20.107018,-19.976042 0.07276,0 -8.856334,8.989219 -19.842438,19.976042 -10.9861,10.986823 -20.03425,19.976042 -20.10702,19.976042 -0.0728,0 8.85634,-8.989219 19.84244,-19.976042 z m 52.3875,-0.52916667 c 1.2305,-1.23692713 2.296806,-2.24895833 2.369566,-2.24895833 0.07276,0 -0.874482,1.0120312 -2.104983,2.24895833 -1.2305,1.23692709 -2.296805,2.24895837 -2.369566,2.24895837 -0.07276,0 0.874483,-1.01203128 2.104983,-2.24895837 z M -76.993747,-26.779612 c 1.230501,-1.236927 2.296806,-2.248959 2.369566,-2.248959 0.07276,0 -0.874482,1.012032 -2.104982,2.248959 -1.230501,1.236927 -2.296806,2.248958 -2.369566,2.248958 -0.07276,0 0.874482,-1.012031 2.104982,-2.248958 z"
         id="path855" />
      <path
         style="fill:#ffffff;fill-opacity:1;stroke-width:0.264583"
         d="m -127.53598,49.751117 c -3.71453,-3.747162 -6.69022,-6.813021 -6.61264,-6.813021 0.22045,0 13.62183,13.464199 13.48663,13.549842 -0.0662,0.04191 -3.15946,-2.98966 -6.87399,-6.736821 z m 87.848483,-62.210834 c 0,-0.05494 0.20836,-0.2633 0.463021,-0.463021 0.419645,-0.329107 0.429004,-0.319749 0.0999,0.0999 -0.345643,0.44073 -0.562917,0.580888 -0.562917,0.363125 z m 0.495417,-23.646458 c -0.329108,-0.419644 -0.319749,-0.429002 0.0999,-0.09989 0.44073,0.345644 0.580887,0.562916 0.363125,0.562916 -0.05494,0 -0.263301,-0.208359 -0.463021,-0.463021 z m -26.16,-2.018124 c 0,-0.05494 0.208359,-0.263301 0.463021,-0.463021 0.419645,-0.329107 0.429003,-0.319749 0.0999,0.09989 -0.345644,0.440729 -0.562917,0.580887 -0.562917,0.363126 z"
         id="path853" />
      <path
         style="fill:#ffffff;fill-opacity:1;stroke-width:0.264583"
         d="m -114.69797,36.786533 -11.90515,-11.972395 11.97239,11.905146 c 11.1281,11.06559 12.09127,12.039645 11.90515,12.039645 -0.037,0 -5.42456,-5.387578 -11.97239,-11.972396 z m 4.3657,-4.365624 -12.83127,-12.898438 12.89844,12.831268 c 7.09414,7.057199 12.898437,12.861496 12.898437,12.898437 0,0.186008 -1.038916,-0.842145 -12.965607,-12.831267 z m 39.819802,-39.8197922 -12.96357,-13.0307288 13.030729,12.9635696 c 7.166901,7.12996525 13.030729,12.9937934 13.030729,13.0307292 0,0.1859915 -1.048184,-0.8514424 -13.097888,-12.96357 z m 4.365614,-4.3656248 -12.831268,-12.898438 12.898438,12.831268 c 11.989123,11.92669177 13.017275,12.9656073 12.831268,12.9656073 -0.03694,0 -5.841238,-5.8042968 -12.898438,-12.8984373 z m 4.233312,-4.233334 -12.566663,-12.633854 12.633854,12.566664 c 6.94862,6.911665 12.633854,12.5968994 12.633854,12.6338537 0,0.1860392 -1.020384,-0.82355 -12.701045,-12.5666637 z m 4.429689,-4.236452 -12.899541,-12.901555 2.581802,-2.510424 2.581804,-2.510423 -2.445425,2.516535 -2.445427,2.516534 12.765577,12.763542 12.765574,12.7635396 2.510417,-2.4477846 2.510414,-2.447782 -2.506591,2.5796872 c -1.378622,1.4188281 -2.509396,2.5796875 -2.512827,2.5796875 -0.0034,0 -5.811031,-5.8056997 -12.905777,-12.9015567 z m 22.315162,-2.598616 c 0.0127,-0.308226 0.07539,-0.370919 0.159851,-0.159853 0.07643,0.190994 0.06703,0.419198 -0.02088,0.507119 -0.08792,0.08792 -0.150453,-0.06835 -0.138965,-0.347266 z m -19.914248,-19.870151 c 0.190994,-0.07643 0.4192,-0.06703 0.507119,0.02089 0.08792,0.08792 -0.06835,0.150453 -0.347266,0.138964 -0.308226,-0.0127 -0.370919,-0.07539 -0.159853,-0.159852 z"
         id="path851" />
      <path
         style="fill:#ffffff;fill-opacity:1;stroke-width:0.264583"
         d="m -134.42826,60.533623 c -2.37299,-0.75797 -4.06116,-3.129679 -4.0496,-5.689277 0.005,-1.204952 0.3673,-2.330434 2.1042,-6.54453 1.15369,-2.799127 2.15805,-5.09108 2.2319,-5.093229 0.22588,-0.0066 13.34379,13.198406 13.21517,13.30288 -0.56085,0.45552 -10.29091,4.192788 -11.16374,4.287933 -0.62006,0.06759 -1.67212,-0.05111 -2.33793,-0.263777 z m 11.32932,-15.149658 c -4.61944,-4.621125 -8.39897,-8.512627 -8.39897,-8.647779 0,-0.135155 1.07995,-2.872904 2.3999,-6.08389 l 2.3999,-5.838158 6.11859,6.144683 c 3.36523,3.379576 8.80394,8.818248 12.08604,12.085936 l 5.96744,5.941251 -5.83816,2.400004 c -3.21098,1.320001 -5.95012,2.400001 -6.08696,2.400001 -0.13685,0 -4.02835,-3.780923 -8.64778,-8.402048 z M -110.13325,32.420472 -123.03091,19.520807 -103.18717,-0.32160973 -83.343424,-20.164029 -70.445428,-7.2660306 -57.54743,5.6319651 -77.391519,25.476051 -97.235605,45.32014 Z m 44.181738,-44.189089 -12.899538,-12.901554 2.05758,-2.045512 2.05758,-2.045512 12.894513,12.894513 12.894511,12.8945135 -2.052552,2.05255281 -2.052553,2.05255279 z m 8.586568,-8.598495 -12.782656,-12.797551 3.395509,-3.289766 c 3.468272,-3.360265 4.921107,-4.325549 8.109691,-5.388199 6.964828,-2.321148 14.887117,0.110173 19.629617,6.024258 3.804193,4.743982 5.00756,11.155612 3.14351,16.748869 -1.071518,3.215199 -2.021327,4.640075 -5.405724,8.10953 l -3.307291,3.3904078 z"
         id="path849" />
    </g>
  </g>
</svg>
