<?xml version="1.0" encoding="UTF-8" standalone="no"?>
<svg
   xmlns:dc="http://purl.org/dc/elements/1.1/"
   xmlns:cc="http://creativecommons.org/ns#"
   xmlns:rdf="http://www.w3.org/1999/02/22-rdf-syntax-ns#"
   xmlns:svg="http://www.w3.org/2000/svg"
   xmlns="http://www.w3.org/2000/svg"
   xmlns:sodipodi="http://sodipodi.sourceforge.net/DTD/sodipodi-0.dtd"
   xmlns:inkscape="http://www.inkscape.org/namespaces/inkscape"
   sodipodi:docname="people_icon.svg"
   inkscape:version="1.0 (4035a4fb49, 2020-05-01)"
   id="svg8"
   version="1.1"
   viewBox="0 0 135.46666 135.46667"
   height="512"
   width="512">
  <defs
     id="defs2" />
  <sodipodi:namedview
     inkscape:window-maximized="1"
     inkscape:window-y="-9"
     inkscape:window-x="1911"
     inkscape:window-height="1464"
     inkscape:window-width="2743"
     units="px"
     showgrid="false"
     inkscape:document-rotation="0"
     inkscape:current-layer="layer1"
     inkscape:document-units="mm"
     inkscape:cy="277.41441"
     inkscape:cx="139.43168"
     inkscape:zoom="1.979899"
     inkscape:pageshadow="2"
     inkscape:pageopacity="0.0"
     borderopacity="1.0"
     bordercolor="#666666"
     pagecolor="#ffffff"
     id="base" />
  <metadata
     id="metadata5">
    <rdf:RDF>
      <cc:Work
         rdf:about="">
        <dc:format>image/svg+xml</dc:format>
        <dc:type
           rdf:resource="http://purl.org/dc/dcmitype/StillImage" />
        <dc:title></dc:title>
      </cc:Work>
    </rdf:RDF>
  </metadata>
  <g
     id="layer1"
     inkscape:groupmode="layer"
     inkscape:label="Capa 1">
    <path
       id="path861"
       d="m 61.160573,111.45593 c -5.777605,-0.57769 -11.889039,-1.76984 -17.894462,-3.49062 -1.836163,-0.52613 -3.375944,-0.9566 -3.421742,-0.9566 -0.04574,0 -0.08199,-4.37495 -0.08042,-9.7221 0.0026,-8.698808 0.04623,-9.932691 0.41578,-11.722943 0.985654,-4.776251 3.866155,-9.402102 7.635949,-12.262695 2.746698,-2.084248 5.257217,-3.262959 8.515323,-3.998025 2.05743,-0.464174 15.482157,-0.698793 19.412189,-0.339253 5.398363,0.493865 9.504872,2.301271 13.086616,5.759831 2.425174,2.341768 4.057376,4.838147 5.253456,8.034973 1.061389,2.836802 1.129104,3.602897 1.235071,13.970204 l 0.100327,9.815938 -0.870121,0.44391 c -3.971115,2.02592 -10.61904,3.71557 -17.573364,4.46647 -3.747067,0.40461 -11.772632,0.40506 -15.814576,8.7e-4 z m 38.1262,-19.324392 c -0.0048,-7.830132 -1.547753,-12.741101 -5.631502,-17.925697 -2.223382,-2.822721 -5.244856,-5.185042 -8.74636,-6.83829 -1.112646,-0.525341 -2.291839,-1.021409 -2.620434,-1.102381 -0.714916,-0.176169 -0.74234,-0.336156 -0.149561,-0.872602 1.201663,-1.087494 3.279116,-4.393585 4.224393,-6.722768 0.515745,-1.270804 1.18979,-4.210882 1.195388,-5.214085 0.0026,-0.477944 0.0869,-0.998412 0.187184,-1.156564 0.147643,-0.232874 1.78858,-0.271628 8.632502,-0.203857 7.818937,0.07741 8.575537,0.118429 10.128267,0.548786 6.22534,1.72549 10.87966,5.557464 13.65193,11.239824 1.95978,4.017015 2.00807,4.381562 2.10316,15.875419 l 0.0829,10.009575 -1.54135,0.71045 c -4.75261,2.190618 -12.10041,3.854529 -19.07049,4.318511 l -2.444114,0.162692 -0.0019,-2.828998 z m -66.803665,2.465494 c -6.04887,-0.577739 -14.562864,-2.348275 -20.381,-4.23836 l -1.045439,-0.339597 0.08262,-10.134665 c 0.09482,-11.635293 0.139579,-11.975485 2.103256,-16.000506 2.771922,-5.681676 7.418375,-9.50771 13.651926,-11.241428 1.572418,-0.437322 2.267744,-0.471797 11.042824,-0.547119 l 9.364748,-0.08042 0.14425,1.407956 c 0.432255,4.219021 2.733266,9.293962 5.327914,11.750844 0.370632,0.350958 0.673874,0.702094 0.673874,0.780312 0,0.07824 -0.415483,0.26558 -0.923326,0.416371 -4.240563,1.259166 -9.604036,5.340874 -12.369822,9.413674 -1.338363,1.970826 -2.911553,5.449128 -3.55943,7.869841 -0.514998,1.924241 -0.593875,2.68774 -0.690198,6.680546 l -0.108736,4.508006 -0.679076,-0.02951 C 34.744008,94.796747 33.55853,94.699576 32.483125,94.59688 Z M 64.17286,67.375297 C 56.180341,65.553883 50.918954,58.650772 51.33588,50.532752 c 0.221218,-4.307463 1.905169,-7.970514 5.03404,-10.950429 3.122361,-2.973715 7.864344,-4.704963 12.068646,-4.406133 7.222865,0.51338 12.995762,5.285186 14.901783,12.317625 0.567779,2.094872 0.525508,5.905597 -0.0897,8.089138 -1.543582,5.478362 -5.540826,9.67115 -10.865288,11.396823 -2.085425,0.675895 -6.127875,0.870584 -8.212474,0.395516 z M 36.803862,50.737115 C 30.336709,49.853517 25.20696,45.424256 23.220205,39.008362 22.501506,36.687436 22.496692,32.694314 23.209423,30.219384 24.769,24.805252 28.65191,20.843908 34.220951,18.985417 c 1.31425,-0.438601 1.948569,-0.507513 4.670951,-0.507513 2.722382,0 3.356695,0.0689 4.67095,0.507513 6.76558,2.2578 11.077077,7.704507 11.552991,14.594882 l 0.127774,1.849928 -1.213812,1.03699 c -2.649103,2.2632 -5.1194,6.35971 -6.049077,10.031226 -0.45173,1.784001 -0.520266,1.904585 -1.36052,2.39388 -2.570766,1.497002 -6.69261,2.271607 -9.816534,1.844792 z m 55.700256,8.7e-4 c -1.51069,-0.18443 -2.44641,-0.42832 -4.010605,-1.045417 -0.857321,-0.33822 -0.918533,-0.420894 -1.057027,-1.427864 -0.358189,-2.604238 -1.572556,-5.651823 -3.245972,-8.146009 -1.101388,-1.641591 -3.592171,-4.162852 -5.07834,-5.14048 l -0.949451,-0.624569 0.133182,-1.274286 c 0.576323,-5.513869 3.792325,-10.321824 8.58403,-12.83314 2.791163,-1.462836 4.109087,-1.768316 7.629045,-1.768316 2.722379,0 3.356692,0.0689 4.670946,0.507513 5.569044,1.858491 9.451954,5.819835 11.011534,11.233967 0.71292,2.47493 0.7081,6.468052 -0.0108,8.788978 -2.43313,7.857406 -9.73056,12.699732 -17.676745,11.729693 z"
       style="fill:#ffffff;stroke-width:0.217254" />
  </g>
</svg>
