<?xml version="1.0" encoding="UTF-8" standalone="no"?>
<svg
   xmlns:dc="http://purl.org/dc/elements/1.1/"
   xmlns:cc="http://creativecommons.org/ns#"
   xmlns:rdf="http://www.w3.org/1999/02/22-rdf-syntax-ns#"
   xmlns:svg="http://www.w3.org/2000/svg"
   xmlns="http://www.w3.org/2000/svg"
   xmlns:sodipodi="http://sodipodi.sourceforge.net/DTD/sodipodi-0.dtd"
   xmlns:inkscape="http://www.inkscape.org/namespaces/inkscape"
   sodipodi:docname="trash.svg"
   inkscape:version="1.0 (4035a4fb49, 2020-05-01)"
   id="svg863"
   version="1.1"
   viewBox="0 0 135.46666 135.46667"
   height="512"
   width="512">
  <defs
     id="defs857" />
  <sodipodi:namedview
     inkscape:window-maximized="1"
     inkscape:window-y="-9"
     inkscape:window-x="-9"
     inkscape:window-height="1001"
     inkscape:window-width="1920"
     units="px"
     showgrid="false"
     inkscape:document-rotation="0"
     inkscape:current-layer="layer1"
     inkscape:document-units="mm"
     inkscape:cy="246.41177"
     inkscape:cx="235.56561"
     inkscape:zoom="0.98994949"
     inkscape:pageshadow="2"
     inkscape:pageopacity="0.0"
     borderopacity="1.0"
     bordercolor="#666666"
     pagecolor="#ffffff"
     id="base" />
  <metadata
     id="metadata860">
    <rdf:RDF>
      <cc:Work
         rdf:about="">
        <dc:format>image/svg+xml</dc:format>
        <dc:type
           rdf:resource="http://purl.org/dc/dcmitype/StillImage" />
        <dc:title></dc:title>
      </cc:Work>
    </rdf:RDF>
  </metadata>
  <g
     id="layer1"
     inkscape:groupmode="layer"
     inkscape:label="Capa 1">
    <path
       id="path1440"
       d="m 42.80452,116.22487 c -2.908685,-0.80466 -5.535619,-2.84373 -6.91158,-5.36489 -1.472311,-2.69771 -1.435158,-1.72182 -1.439949,-37.819417 l -0.0044,-33.113891 h 33.170489 33.17055 l -0.005,33.113891 c -0.005,36.097597 0.0323,35.121707 -1.439959,37.819417 -1.377851,2.52462 -4.086859,4.60445 -7.000302,5.37445 -1.825743,0.48254 -47.793664,0.47366 -49.54044,-0.01 z M 29.131189,28.993432 v -5.403785 h 9.562992 9.56299 l 2.776669,-2.764728 2.77667,-2.764727 h 13.808579 13.80857 l 2.77667,2.764727 2.776669,2.764728 h 9.563015 9.563017 v 5.403785 5.403785 h -38.487941 -38.4879 z"
       style="fill:#ffffff;stroke-width:0.252272" />
  </g>
</svg>
